<?xml version="1.0" encoding="UTF-8" standalone="no"?>
<svg
   xmlns:dc="http://purl.org/dc/elements/1.1/"
   xmlns:cc="http://creativecommons.org/ns#"
   xmlns:rdf="http://www.w3.org/1999/02/22-rdf-syntax-ns#"
   xmlns:svg="http://www.w3.org/2000/svg"
   xmlns="http://www.w3.org/2000/svg"
   version="1.1"
   id="svg4175"
   viewBox="0 0 520.00001 525.46595"
   height="525.46594"
   width="520">
  <defs
     id="defs4177" />
  <metadata
     id="metadata4180">
    <rdf:RDF>
      <cc:Work
         rdf:about="">
        <dc:format>image/svg+xml</dc:format>
        <dc:type
           rdf:resource="http://purl.org/dc/dcmitype/StillImage" />
        <dc:title></dc:title>
      </cc:Work>
    </rdf:RDF>
  </metadata>
  <g
     transform="translate(9.9999998,-536.89625)"
     id="layer1">
    <path
       d="m 208.19164,1017.8437 c 35.70273,-59.03973 73.13452,-77.31717 112.37336,-103.27317 9.30243,-6.15339 10.27701,-4.86303 16.48331,-1.82689 5.31528,2.60026 12.68729,4.62745 20.33688,5.59233 3.34576,0.42195 5.07817,0.73516 5.03251,2.77206 -1.18087,52.65012 2.15718,85.69547 -16.25076,95.61297 -42.50412,21.658 -101.01477,20.7072 -136.54756,15.3203 -4.64672,-0.7046 -3.00241,-11.5937 -1.42774,-14.1976 z m -49.47912,-0.5694 c -21.04674,-9.2934 -54.22634,-27.45982 -75.798764,-51.61043 -7.907115,-8.85212 -0.180295,-23.04952 4.912634,-36.69785 12.98882,-34.82293 22.7435,-61.23279 34.03858,-94.7764 0.94376,-2.80275 3.88324,-5.73215 8.29329,-4.88782 13.47537,2.57984 28.70083,-1.09011 40.38798,-10.3384 6.22428,-4.92539 7.34222,-1.30148 12.8431,1.56967 45.31297,23.6511 68.49223,33.49204 115.92917,50.41208 7.41749,2.64572 8.39066,2.86408 10.72458,8.78864 3.22438,8.18488 0.65861,8.21102 -5.60775,11.23612 -59.22865,28.59266 -90.78617,68.88347 -125.42755,119.10799 -8.96159,11.5937 -12.52894,10.6257 -20.29527,7.1964 z m 229.31733,-34.87363 c 3.05831,-26.98336 4.19921,-43.81458 3.68389,-68.67859 -0.0577,-2.88085 0.27873,-4.64068 3.61498,-7.85234 4.96905,-4.78313 13.6146,-13.48392 17.92826,-21.90797 4.73048,-9.23788 2.61028,-8.37004 20.20376,-10.40514 11.78354,-1.36299 21.89146,-3.64522 34.80931,-6.11806 3.03447,-0.58121 5.65653,5.60663 3.79201,11.19428 -14.45028,43.29898 -39.87912,75.86428 -75.15118,105.24514 -4.14565,3.4532 -9.1038,0.48812 -8.88103,-1.47732 z M 43.625435,913.90303 C 5.4303539,842.58215 6.9039741,767.0635 37.271415,698.65068 c 3.262762,-7.35046 12.641132,-1.49266 16.861929,3.13633 3.479782,3.81632 34.347811,45.221 36.207956,47.16522 3.176984,3.32059 0.5536,6.43469 -0.662003,9.93233 -5.130642,14.76548 -3.758717,29.35847 2.821503,43.55115 2.624082,5.65977 2.619708,6.57262 0.650769,12.35808 -11.737757,34.48898 -22.942604,64.0681 -36.342836,95.57284 -1.508339,3.54614 -9.77756,9.89586 -13.183298,3.5364 z m 371.657135,-69.0142 c -4.36965,0.51763 -7.42872,-1.39119 -8.53188,-3.43534 -7.62505,-14.12917 -19.05634,-23.33058 -34.22129,-26.46523 -5.58257,-1.15396 -5.4199,-5.87061 -10.89387,-19.6395 -13.3326,-33.53589 -31.29349,-66.89217 -47.26155,-91.0911 -5.16686,-7.83005 -7.37362,-12.01725 -3.63958,-16.02495 6.7558,-7.25077 8.01836,-22.38219 4.72154,-33.49217 -0.72116,-2.4302 1.18966,-5.97029 3.62102,-6.6874 25.39276,-7.48909 48.89887,-17.41984 74.47426,-19.93164 5.90906,-0.58034 14.57547,-1.64707 17.77402,1.16956 54.88466,48.33133 78.28063,111.89087 73.3215,190.46479 -0.50187,7.95183 -16.67912,14.42747 -22.81324,15.92168 -15.88102,3.86859 -29.91444,6.71745 -46.55093,9.2113 z M 301.4463,840.05849 c -38.50862,-13.93675 -69.94592,-26.39752 -103.31484,-41.95488 -11.92568,-5.56003 -10.59845,-4.91273 -7.95626,-15.89432 2.68529,-11.16098 -3.40953,-25.59417 -7.22417,-31.44617 -3.53804,-5.42773 -2.62897,-6.58457 0.71126,-10.17065 12.46092,-13.37807 23.3036,-23.10547 36.37335,-36.90304 4.68531,-4.94633 4.86648,-3.43201 9.65115,0.52982 16.08199,13.31708 37.74437,17.0167 55.4097,8.36826 5.24984,-2.57021 5.92861,-1.65484 8.74536,2.91976 17.08522,27.74769 30.36407,54.12833 44.13866,86.98277 4.04976,9.65925 7.51479,12.62364 -1.18067,16.94796 -7.88195,3.91978 -15.41741,10.50565 -20.12258,17.85634 -4.71184,7.36116 -5.93021,5.63671 -15.23096,2.7639 z M 68.712324,672.26735 c -4.197745,-5.47552 -7.503585,-13.72076 -2.778704,-19.79027 17.775203,-22.83378 36.1184,-37.16334 54.92547,-49.31727 13.3632,-8.63587 20.10989,0.83322 34.31644,8.54176 19.89279,10.79394 28.12481,17.51107 47.1613,29.65518 6.61785,4.22175 8.87477,5.90221 8.88351,12.96204 0.004,2.78329 -1.158,9.62122 -1.77879,14.42651 -1.15119,8.91125 -0.87176,9.04092 -8.8808,15.89408 -17.5638,15.02892 -28.39089,26.04693 -41.3221,37.99059 -5.66227,5.2569 -4.93784,5.39678 -11.69094,2.97757 -7.67764,-2.75035 -17.09748,-2.4871 -27.27616,0.98806 -5.97074,2.0385 -7.80707,3.35327 -11.92562,-1.89837 C 92.103578,703.85293 86.89356,695.98255 68.71264,672.26735 Z M 219.66025,618.98207 c -16.89704,-9.68475 -31.7114,-17.8151 -47.63688,-26.59682 -8.24852,-4.54845 -11.19088,-10.17354 2.04674,-15.25929 54.68605,-21.00988 127.82866,-17.6985 189.6594,16.04459 11.13573,6.07712 4.08189,10.56719 -9.69733,14.24838 -15.45466,4.12877 -30.11565,8.19337 -45.92553,14.00471 -6.29442,2.31362 -9.21014,3.53046 -13.55288,0.98414 -15.6508,-11.26751 -39.06736,-11.14755 -58.51585,-1.52728 -7.64759,3.78299 -6.43353,3.80116 -16.37767,-1.89843 z"
       id="path3776-6"
       style="display:inline;opacity:1;fill:#edac00;fill-opacity:1;stroke:none;stroke-width:20;stroke-miterlimit:4;stroke-dasharray:none;stroke-opacity:1" />
  </g>
</svg>
