<?xml version="1.0" encoding="UTF-8" standalone="no"?>
<!-- Created with Inkscape (http://www.inkscape.org/) -->

<svg
   xmlns:dc="http://purl.org/dc/elements/1.1/"
   xmlns:cc="http://creativecommons.org/ns#"
   xmlns:rdf="http://www.w3.org/1999/02/22-rdf-syntax-ns#"
   xmlns:svg="http://www.w3.org/2000/svg"
   xmlns="http://www.w3.org/2000/svg"
   version="1.1"
   width="500"
   height="300"
   viewBox="0 0 500 300"
   enable-background="new 0 0 500 300"
   id="svg2">
  <defs
     id="defs3738">
    <clipPath
       id="clipPath344">
      <path
         d="M 0,560 960,560 960,0 0,0 0,560 z"
         id="path346" />
    </clipPath>
    <clipPath
       id="clipPath328">
      <path
         d="M 0,560 960,560 960,0 0,0 0,560 z"
         id="path330" />
    </clipPath>
    <clipPath
       id="clipPath312">
      <path
         d="M 0,560 960,560 960,0 0,0 0,560 z"
         id="path314" />
    </clipPath>
    <clipPath
       id="clipPath296">
      <path
         d="M 0,560 960,560 960,0 0,0 0,560 z"
         id="path298" />
    </clipPath>
    <clipPath
       id="clipPath280">
      <path
         d="M 0,560 960,560 960,0 0,0 0,560 z"
         id="path282" />
    </clipPath>
    <clipPath
       id="clipPath264">
      <path
         d="M 0,560 960,560 960,0 0,0 0,560 z"
         id="path266" />
    </clipPath>
    <clipPath
       id="clipPath248">
      <path
         d="M 0,560 960,560 960,0 0,0 0,560 z"
         id="path250" />
    </clipPath>
    <clipPath
       id="clipPath232">
      <path
         d="M 0,560 960,560 960,0 0,0 0,560 z"
         id="path234" />
    </clipPath>
    <clipPath
       id="clipPath216">
      <path
         d="M 0,560 960,560 960,0 0,0 0,560 z"
         id="path218" />
    </clipPath>
    <clipPath
       id="clipPath200">
      <path
         d="M 0,560 960,560 960,0 0,0 0,560 z"
         id="path202" />
    </clipPath>
    <clipPath
       id="clipPath16">
      <path
         d="M 0,560 960,560 960,0 0,0 0,560 z"
         id="path18" />
    </clipPath>
    <clipPath
       id="clipPath200-4">
      <path
         d="M 0,560 960,560 960,0 0,0 0,560 z"
         id="path202-4" />
    </clipPath>
    <clipPath
       id="clipPath216-0">
      <path
         d="M 0,560 960,560 960,0 0,0 0,560 z"
         id="path218-7" />
    </clipPath>
    <clipPath
       id="clipPath232-5">
      <path
         d="M 0,560 960,560 960,0 0,0 0,560 z"
         id="path234-6" />
    </clipPath>
    <clipPath
       id="clipPath248-4">
      <path
         d="M 0,560 960,560 960,0 0,0 0,560 z"
         id="path250-7" />
    </clipPath>
    <clipPath
       id="clipPath264-6">
      <path
         d="M 0,560 960,560 960,0 0,0 0,560 z"
         id="path266-9" />
    </clipPath>
    <clipPath
       id="clipPath280-6">
      <path
         d="M 0,560 960,560 960,0 0,0 0,560 z"
         id="path282-5" />
    </clipPath>
    <clipPath
       id="clipPath296-4">
      <path
         d="M 0,560 960,560 960,0 0,0 0,560 z"
         id="path298-5" />
    </clipPath>
    <clipPath
       id="clipPath512">
      <path
         d="M 0,560 960,560 960,0 0,0 0,560 z"
         id="path514" />
    </clipPath>
    <clipPath
       id="clipPath544">
      <path
         d="M 0,560 960,560 960,0 0,0 0,560 z"
         id="path546" />
    </clipPath>
    <clipPath
       id="clipPath528">
      <path
         d="M 0,560 960,560 960,0 0,0 0,560 z"
         id="path530" />
    </clipPath>
    <clipPath
       id="clipPath496">
      <path
         d="M 0,560 960,560 960,0 0,0 0,560 z"
         id="path498" />
    </clipPath>
    <clipPath
       id="clipPath480">
      <path
         d="M 0,560 960,560 960,0 0,0 0,560 z"
         id="path482" />
    </clipPath>
    <clipPath
       id="clipPath464">
      <path
         d="M 0,560 960,560 960,0 0,0 0,560 z"
         id="path466" />
    </clipPath>
    <clipPath
       id="clipPath448">
      <path
         d="M 0,560 960,560 960,0 0,0 0,560 z"
         id="path450" />
    </clipPath>
    <clipPath
       id="clipPath432">
      <path
         d="M 0,560 960,560 960,0 0,0 0,560 z"
         id="path434" />
    </clipPath>
    <clipPath
       id="clipPath416">
      <path
         d="M 0,560 960,560 960,0 0,0 0,560 z"
         id="path418" />
    </clipPath>
    <clipPath
       id="clipPath400">
      <path
         d="M 0,560 960,560 960,0 0,0 0,560 z"
         id="path402" />
    </clipPath>
    <clipPath
       id="clipPath544-1">
      <path
         d="M 0,560 960,560 960,0 0,0 0,560 z"
         id="path546-7" />
    </clipPath>
    <clipPath
       id="clipPath528-4">
      <path
         d="M 0,560 960,560 960,0 0,0 0,560 z"
         id="path530-0" />
    </clipPath>
    <clipPath
       id="clipPath512-9">
      <path
         d="M 0,560 960,560 960,0 0,0 0,560 z"
         id="path514-4" />
    </clipPath>
    <clipPath
       id="clipPath496-8">
      <path
         d="M 0,560 960,560 960,0 0,0 0,560 z"
         id="path498-8" />
    </clipPath>
    <clipPath
       id="clipPath480-2">
      <path
         d="M 0,560 960,560 960,0 0,0 0,560 z"
         id="path482-4" />
    </clipPath>
    <clipPath
       id="clipPath464-5">
      <path
         d="M 0,560 960,560 960,0 0,0 0,560 z"
         id="path466-5" />
    </clipPath>
    <clipPath
       id="clipPath448-1">
      <path
         d="M 0,560 960,560 960,0 0,0 0,560 z"
         id="path450-7" />
    </clipPath>
    <clipPath
       id="clipPath432-1">
      <path
         d="M 0,560 960,560 960,0 0,0 0,560 z"
         id="path434-1" />
    </clipPath>
    <clipPath
       id="clipPath416-5">
      <path
         d="M 0,560 960,560 960,0 0,0 0,560 z"
         id="path418-2" />
    </clipPath>
    <clipPath
       id="clipPath400-7">
      <path
         d="M 0,560 960,560 960,0 0,0 0,560 z"
         id="path402-6" />
    </clipPath>
  </defs>
  <metadata
     id="metadata3741">
    <rdf:RDF>
      <cc:Work
         rdf:about="">
        <dc:format>image/svg+xml</dc:format>
        <dc:type
           rdf:resource="http://purl.org/dc/dcmitype/StillImage" />
        <dc:title></dc:title>
      </cc:Work>
    </rdf:RDF>
  </metadata>
  <g
     transform="matrix(1.2896785,0,0,-1.2896785,164.10686,278.05493)"
     id="g368">
    <path
       d="m 0,0 c -2.324,-4.272 1.169,26.364 6.783,57.268 4.731,26.044 11.36,52.189 13.36,58.68 11.668,37.88 23.336,62.739 45.151,93.178 1.014,1.415 31.144,-56.639 41.262,-86.752 C 120.761,80.097 130.41,29.945 129.048,19.049 128.079,11.301 106.049,77.56 86.635,80.023 70.959,82.011 15.238,28.012 0,0"
       id="path370"
       style="fill:#000000;fill-opacity:1;fill-rule:nonzero;stroke:none" />
  </g>
  <g
     transform="matrix(1.2896785,0,0,-1.2896785,164.10686,278.05493)"
     id="g372">
    <path
       d="m 0,0 c -2.324,-4.272 1.169,26.364 6.783,57.268 4.731,26.044 11.36,52.189 13.36,58.68 11.668,37.88 23.336,62.739 45.151,93.178 1.014,1.415 31.144,-56.639 41.262,-86.752 C 120.761,80.097 130.41,29.945 129.048,19.049 128.079,11.301 106.049,77.56 86.635,80.023 70.959,82.011 15.238,28.012 0,0 z"
       id="path374"
       style="fill:none;stroke:#000000;stroke-width:2;stroke-linecap:butt;stroke-linejoin:miter;stroke-miterlimit:10;stroke-opacity:1;stroke-dasharray:none" />
  </g>
  <g
     transform="matrix(1.2896785,0,0,-1.2896785,297.6047,117.61479)"
     id="g376">
    <path
       d="m 0,0 c -10.118,30.113 -40.248,88.167 -41.262,86.752 -0.19,-0.264 -0.372,-0.525 -0.56,-0.788 L -19.586,-42.41 c 19.331,-3.173 41.114,-68.618 42.077,-60.915 C 23.853,-92.428 14.205,-42.277 0,0"
       id="path378"
       style="fill:#f3ad21;fill-opacity:1;fill-rule:nonzero;stroke:none" />
  </g>
  <g
     transform="matrix(1.2896785,0,0,-1.2896785,297.6047,117.61479)"
     id="g380">
    <path
       d="m 0,0 c -10.118,30.113 -40.248,88.167 -41.262,86.752 -0.19,-0.264 -0.372,-0.525 -0.56,-0.788 L -19.586,-42.41 c 19.331,-3.173 41.114,-68.618 42.077,-60.915 C 23.853,-92.428 14.205,-42.277 0,0 z"
       id="path382"
       style="fill:none;stroke:#f3ad21;stroke-width:2;stroke-linecap:butt;stroke-linejoin:miter;stroke-miterlimit:10;stroke-opacity:1;stroke-dasharray:none" />
  </g>
  <g
     transform="matrix(1.2896785,0,0,-1.2896785,186.15855,125.90239)"
     id="g384">
    <path
       d="m 0,0 c -1.999,-6.491 -8.628,-32.636 -13.359,-58.68 -5.614,-30.904 -9.107,-61.54 -6.784,-57.268 15.239,28.012 70.96,82.011 86.635,80.023 0.112,-0.014 -41.87,7.417 0.336,-0.059 C 109.033,-43.461 44.592,92.39 44.592,92.39 23.14,62.309 11.567,37.551 0,0"
       id="path386"
       style="fill:#f3ad21;fill-opacity:1;fill-rule:nonzero;stroke:none" />
  </g>
  <g
     transform="matrix(1.2896785,0,0,-1.2896785,186.15855,125.90239)"
     id="g388">
    <path
       d="m 0,0 c -1.999,-6.491 -8.628,-32.636 -13.359,-58.68 -5.614,-30.904 -9.107,-61.54 -6.784,-57.268 15.239,28.012 70.96,82.011 86.635,80.023 0.112,-0.014 -41.87,7.417 0.336,-0.059 C 109.033,-43.461 44.592,92.39 44.592,92.39 23.14,62.309 11.567,37.551 0,0 z"
       id="path390"
       style="fill:none;stroke:#f3ad21;stroke-width:2;stroke-linecap:butt;stroke-linejoin:miter;stroke-miterlimit:10;stroke-opacity:1;stroke-dasharray:none" />
  </g>
  <g
     transform="matrix(1.2896785,0,0,-1.2896785,-638.88864,696.8512)"
     clip-path="url(#clipPath400-7)"
     id="g398"
     style="fill:#ffd243;fill-opacity:1;stroke:none">
    <g
       transform="translate(583.6904,441.7861)"
       id="g404"
       style="fill:#ffd243;fill-opacity:1;stroke:none">
      <path
         d="M 0,0 C -1.175,0.015 -2.262,-0.11 -3.262,-0.374 -4.264,-0.64 -5.23,-0.992 -6.163,-1.433 -8.9,-2.776 -10.889,-4.704 -12.13,-7.218 c -1.243,-2.514 -1.895,-5.312 -1.96,-8.396 -0.064,-3.084 0.384,-6.335 1.344,-9.751 0.96,-3.417 2.284,-6.667 3.971,-9.752 1.487,-2.713 3.24,-5.22 5.255,-7.521 2.014,-2.302 4.149,-4.181 6.405,-5.638 2.257,-1.458 4.554,-2.39 6.891,-2.796 2.336,-0.407 4.562,-0.051 6.675,1.067 1.201,0.637 2.388,1.476 3.558,2.521 1.171,1.044 2.101,2.517 2.791,4.421 l -5.688,3.831 c -0.5,-1.061 -1.092,-1.971 -1.776,-2.731 -0.686,-0.761 -1.381,-1.275 -2.087,-1.542 -1.268,-0.513 -2.62,-0.539 -4.056,-0.079 -1.437,0.459 -2.871,1.237 -4.301,2.337 -1.43,1.099 -2.788,2.462 -4.074,4.089 -1.286,1.626 -2.38,3.341 -3.281,5.144 -1.362,2.673 -2.423,5.254 -3.184,7.742 -0.76,2.489 -1.196,4.763 -1.307,6.827 -0.111,2.062 0.124,3.897 0.705,5.505 0.581,1.606 1.542,2.897 2.883,3.873 0.497,0.263 1.156,0.493 1.981,0.691 0.823,0.197 1.572,0.208 2.247,0.036 L 0,0 z"
         id="path406"
         style="fill:#ffd243;fill-opacity:1;stroke:none" />
    </g>
  </g>
  <g
     transform="matrix(1.2896785,0,0,-1.2896785,-638.88864,696.8512)"
     clip-path="url(#clipPath416-5)"
     id="g414"
     style="fill:#ffd243;fill-opacity:1;stroke:none">
    <g
       transform="translate(608.4287,451.0576)"
       id="g420"
       style="fill:#ffd243;fill-opacity:1;stroke:none">
      <path
         d="m 0,0 -6.16,-2.759 11.028,-53.691 6.225,2.789 -3.367,16.289 8.855,3.966 9.912,-13.357 6.225,2.787 L 0,0 z m 3.157,-15.304 9.196,-12.446 -6.096,-2.729 -3.1,15.175 z"
         id="path422"
         style="fill:#ffd243;fill-opacity:1;stroke:none" />
    </g>
  </g>
  <g
     transform="matrix(1.2896785,0,0,-1.2896785,-638.88864,696.8512)"
     clip-path="url(#clipPath432-1)"
     id="g430"
     style="fill:#ffd243;fill-opacity:1;stroke:none">
    <g
       transform="translate(646.8782,449.5293)"
       id="g436"
       style="fill:#ffd243;fill-opacity:1;stroke:none">
      <path
         d="M 0,0 C 0.031,-1.209 -0.184,-2.354 -0.644,-3.438 -1.105,-4.523 -1.826,-5.537 -2.808,-6.482 -3.79,-7.429 -5.113,-8.223 -6.776,-8.862 L -12.919,8.43 c 1.63,0.728 3.106,1.091 4.426,1.088 1.319,-0.005 2.491,-0.26 3.517,-0.765 C -3.95,8.246 -3.077,7.536 -2.354,6.625 -1.632,5.712 -1.074,4.703 -0.683,3.6 -0.259,2.407 -0.031,1.207 0,0 z m 2.736,-35.63 -6.898,19.413 c 2.877,1.42 5.124,3.076 6.74,4.969 1.616,1.893 2.76,3.854 3.432,5.884 0.671,2.029 0.959,4.021 0.861,5.977 C 6.774,2.566 6.442,4.34 5.877,5.93 c -0.8,2.253 -1.917,4.207 -3.351,5.861 -1.434,1.654 -3.247,2.839 -5.441,3.552 -2.193,0.713 -4.786,0.874 -7.781,0.481 -2.995,-0.393 -6.454,-1.51 -10.376,-3.351 l 17.845,-50.221 5.963,2.118 z"
         id="path438"
         style="fill:#ffd243;fill-opacity:1;stroke:none" />
    </g>
  </g>
  <g
     transform="matrix(1.2896785,0,0,-1.2896785,-638.88864,696.8512)"
     clip-path="url(#clipPath448-1)"
     id="g446"
     style="fill:#ffd243;fill-opacity:1;stroke:none">
    <g
       transform="translate(685.7402,424.9727)"
       id="g452"
       style="fill:#ffd243;fill-opacity:1;stroke:none">
      <path
         d="m 0,0 -11.262,45.092 9.482,2.367 -1.687,6.754 -25.854,-6.457 1.687,-6.754 9.482,2.369 L -6.889,-1.721 0,0 z"
         id="path454"
         style="fill:#ffd243;fill-opacity:1;stroke:none" />
    </g>
  </g>
  <g
     transform="matrix(1.2896785,0,0,-1.2896785,-638.88864,696.8512)"
     clip-path="url(#clipPath464-5)"
     id="g462"
     style="fill:#ffd243;fill-opacity:1;stroke:none">
    <g
       transform="translate(704.3975,478.958)"
       id="g468"
       style="fill:#ffd243;fill-opacity:1;stroke:none">
      <path
         d="m 0,0 -6.695,-0.865 -4.931,-54.589 6.764,0.873 1.477,16.568 9.623,1.242 5.637,-15.648 6.763,0.874 L 0,0 z m -1.393,-15.565 5.214,-14.569 -6.624,-0.855 1.41,15.424 z"
         id="path470"
         style="fill:#ffd243;fill-opacity:1;stroke:none" />
    </g>
  </g>
  <g
     transform="matrix(1.2896785,0,0,-1.2896785,-638.88864,696.8512)"
     clip-path="url(#clipPath480-2)"
     id="g478"
     style="fill:#ffd243;fill-opacity:1;stroke:none">
    <g
       transform="translate(746.7388,429.582)"
       id="g484"
       style="fill:#ffd243;fill-opacity:1;stroke:none">
      <path
         d="m 0,0 0.384,6.88 -7.02,0.391 2.205,39.524 7.021,-0.391 0.387,6.95 -21.131,1.179 -0.388,-6.95 7.021,-0.392 -2.206,-39.524 -7.02,0.392 -0.384,-6.88 L 0,0 z"
         id="path486"
         style="fill:#ffd243;fill-opacity:1;stroke:none" />
    </g>
  </g>
  <g
     transform="matrix(1.2896785,0,0,-1.2896785,-638.88864,696.8512)"
     clip-path="url(#clipPath496-8)"
     id="g494"
     style="fill:#ffd243;fill-opacity:1;stroke:none">
    <g
       transform="translate(772.1738,418.7764)"
       id="g500"
       style="fill:#ffd243;fill-opacity:1;stroke:none">
      <path
         d="M 0,0 6.34,-2.104 23.189,48.683 16.849,50.786 4.938,14.882 0.032,56.365 -6.908,58.668 -23.758,7.882 -17.552,5.823 -4.997,43.662 0,0 z"
         id="path502"
         style="fill:#ffd243;fill-opacity:1;stroke:none" />
    </g>
  </g>
  <g
     transform="matrix(1.2896785,0,0,-1.2896785,-638.88864,696.8512)"
     clip-path="url(#clipPath512-9)"
     id="g510"
     style="fill:#ffd243;fill-opacity:1;stroke:none">
    <g
       transform="translate(564.1985,462.3379)"
       id="g516"
       style="fill:#ffd243;fill-opacity:1;stroke:none">
      <path
         d="M 0,0 -3.156,18.544 -7.402,16.247 -5.493,5.129 -13.751,12.813 -17.999,10.516 -4.247,-2.298 4.25,-18.007 8.455,-15.731 -0.042,-0.022 0,0 z"
         id="path518"
         style="fill:#ffd243;fill-opacity:1;stroke:none" />
    </g>
  </g>
  <g
     transform="matrix(1.2896785,0,0,-1.2896785,-638.88864,696.8512)"
     clip-path="url(#clipPath528-4)"
     id="g526"
     style="fill:#ffd243;fill-opacity:1;stroke:none">
    <g
       transform="translate(565.8489,480.6562)"
       id="g532"
       style="fill:#ffd243;fill-opacity:1;stroke:none">
      <path
         d="m 0,0 15.809,-31.925 12.476,6.178 -2.08,4.201 -8.171,-4.1 -4.118,8.318 6.847,3.391 -2.08,4.202 -6.848,-3.392 L 6.323,-1.995 14.514,2.062 12.476,6.178 0,0 z"
         id="path534"
         style="fill:#ffd243;fill-opacity:1;stroke:none" />
    </g>
  </g>
  <g
     transform="matrix(1.2896785,0,0,-1.2896785,-638.88864,696.8512)"
     clip-path="url(#clipPath544-1)"
     id="g542"
     style="fill:#ffd243;fill-opacity:1;stroke:none">
    <g
       transform="translate(600.8684,488.6152)"
       id="g548"
       style="fill:#ffd243;fill-opacity:1;stroke:none">
      <path
         d="M 0,0 C -0.633,1.497 -1.396,2.748 -2.288,3.754 -3.181,4.758 -4.159,5.512 -5.22,6.014 -6.283,6.516 -7.386,6.768 -8.533,6.77 -9.681,6.772 -10.811,6.525 -11.924,6.029 -13.18,5.47 -14.193,4.787 -14.963,3.981 c -0.77,-0.804 -1.317,-1.708 -1.642,-2.707 -0.324,-1 -0.434,-2.058 -0.33,-3.174 0.104,-1.118 0.423,-2.275 0.957,-3.474 1.693,-3.797 5.135,-5.957 10.33,-6.481 2.367,-0.246 4.34,-0.856 5.92,-1.828 1.579,-0.972 2.684,-2.242 3.314,-3.809 0.166,-0.37 0.28,-0.782 0.343,-1.232 0.065,-0.451 0.044,-0.904 -0.06,-1.362 -0.104,-0.456 -0.306,-0.889 -0.603,-1.294 -0.299,-0.408 -0.747,-0.744 -1.346,-1.011 -1.513,-0.674 -2.861,-0.53 -4.041,0.432 -1.182,0.961 -2.154,2.453 -2.918,4.474 l -4.367,-1.947 c 0.693,-1.71 1.532,-3.149 2.515,-4.319 0.984,-1.17 2.052,-2.054 3.208,-2.65 1.155,-0.598 2.373,-0.911 3.652,-0.939 1.278,-0.029 2.56,0.243 3.845,0.816 2.197,0.978 3.66,2.417 4.388,4.315 0.728,1.897 0.615,4.071 -0.339,6.521 -0.478,1.224 -1.064,2.33 -1.762,3.32 -0.697,0.988 -1.562,1.835 -2.594,2.539 -1.032,0.703 -2.265,1.282 -3.699,1.738 -1.435,0.456 -3.129,0.762 -5.079,0.919 -1.521,0.11 -2.858,0.48 -4.012,1.112 -1.154,0.631 -1.94,1.419 -2.36,2.361 -0.153,0.343 -0.266,0.77 -0.342,1.284 -0.074,0.514 -0.084,1.032 -0.025,1.555 0.058,0.52 0.22,1.004 0.484,1.447 0.265,0.443 0.654,0.779 1.167,1.008 0.713,0.317 1.397,0.417 2.049,0.297 0.652,-0.121 1.24,-0.364 1.762,-0.729 0.522,-0.367 0.991,-0.825 1.408,-1.374 0.416,-0.552 0.73,-1.103 0.944,-1.658 L 0,0 z"
         id="path550"
         style="fill:#ffd243;fill-opacity:1;stroke:none" />
    </g>
  </g>
  <g
     transform="matrix(1.2896785,0,0,-1.2896785,156.98151,99.900027)"
     id="g564"
     style="fill:#ffd243;fill-opacity:1;stroke:none">
    <path
       d="M 0,0 3.781,1.527 C 3.878,1.869 3.825,2.396 3.623,3.105 3.42,3.815 3.146,4.557 2.802,5.327 2.457,6.098 2.07,6.826 1.641,7.513 1.212,8.199 0.834,8.695 0.509,9.002 L -2.969,7.598 C -2.654,7.15 -2.295,6.597 -1.892,5.934 -1.49,5.271 -1.138,4.587 -0.836,3.883 -0.535,3.179 -0.296,2.483 -0.12,1.797 0.057,1.109 0.097,0.511 0,0 z"
       id="path566"
       style="fill:#ffd243;fill-opacity:1;stroke:none" />
  </g>
  <g
     transform="matrix(1.2896785,0,0,-1.2896785,243.38572,24.627807)"
     id="g576">
    <path
       d="M 0,0 1.426,-11.464 8.251,-15.533 1.426,-17.605 0,-31.065 l -1.782,13.46 -6.469,2.072 6.469,3.702 L 0,0 z"
       id="path578"
       style="fill:#ffd243;fill-opacity:1;fill-rule:nonzero;stroke:none" />
  </g>
  <g
     transform="matrix(1.2896785,0,0,-1.2896785,243.38572,24.627807)"
     id="g580">
    <path
       d="M 0,0 1.426,-11.464 8.251,-15.533 1.426,-17.605 0,-31.065 l -1.782,13.46 -6.469,2.072 6.469,3.702 L 0,0 z"
       id="path582"
       style="fill:none;stroke:#ffd243;stroke-width:2;stroke-linecap:butt;stroke-linejoin:miter;stroke-miterlimit:10;stroke-opacity:1;stroke-dasharray:none" />
  </g>
  <g
     transform="matrix(1.2896785,0,0,-1.2896785,165.13718,75.991847)"
     id="g592"
     style="fill:#ffd243;fill-opacity:1;stroke:none">
    <path
       d="M 0,0 C 8.687,1.909 17.373,3.818 26.06,5.727 27.949,6.142 27.148,9.034 25.262,8.62 16.576,6.711 7.889,4.802 -0.798,2.893 -2.687,2.478 -1.885,-0.414 0,0"
       id="path594"
       style="fill:#ffd243;fill-opacity:1;fill-rule:nonzero;stroke:none" />
  </g>
  <g
     transform="matrix(1.2896785,0,0,-1.2896785,163.07201,67.539797)"
     id="g596"
     style="fill:#ffd243;fill-opacity:1;stroke:none">
    <path
       d="m 0,0 c 8.687,1.909 17.373,3.818 26.06,5.727 3.778,0.831 2.176,6.615 -1.595,5.786 C 15.778,9.604 7.092,7.695 -1.595,5.786 -5.373,4.955 -3.771,-0.829 0,0"
       id="path598"
       style="fill:#ffd243;fill-opacity:1;fill-rule:nonzero;stroke:none" />
  </g>
</svg>
