<?xml version="1.0" encoding="UTF-8" standalone="no"?>
<!-- Created with Inkscape (http://www.inkscape.org/) -->

<svg
   xmlns:dc="http://purl.org/dc/elements/1.1/"
   xmlns:cc="http://creativecommons.org/ns#"
   xmlns:rdf="http://www.w3.org/1999/02/22-rdf-syntax-ns#"
   xmlns:svg="http://www.w3.org/2000/svg"
   xmlns="http://www.w3.org/2000/svg"
   version="1.1"
   width="85"
   height="38"
   viewBox="0 0 85 38"
   enable-background="new 0 0 85 38"
   id="svg2">
  <defs
     id="defs4438" />
  <metadata
     id="metadata4441">
    <rdf:RDF>
      <cc:Work
         rdf:about="">
        <dc:format>image/svg+xml</dc:format>
        <dc:type
           rdf:resource="http://purl.org/dc/dcmitype/StillImage" />
        <dc:title></dc:title>
      </cc:Work>
    </rdf:RDF>
  </metadata>
  <g
     transform="translate(0,-1014.3608)"
     id="layer1">
    <path
       d="m 1.3964239,1051.4908 15.9375001,-21.75 67.162496,0 -15.9375,21.75 -67.1624961,0 z"
       id="path1066"
       style="fill:#e7e6e6;fill-opacity:1;fill-rule:evenodd;stroke:none" />
    <path
       d="m 1.3964239,1051.4908 15.9375001,-21.75 67.162496,0 -15.9375,21.75 -67.1624961,0 z"
       id="path1068"
       style="fill:none;stroke:#ffffff;stroke-width:1.19999993;stroke-linecap:butt;stroke-linejoin:miter;stroke-miterlimit:10;stroke-opacity:1;stroke-dasharray:none" />
    <path
       d="m 14.146424,1035.5555 c 0,4.575 12.9,8.2875 28.8,8.2875 15.899996,0 28.799996,-3.7125 28.799996,-8.2875 l 0,4.7978 c 0,4.575 -12.9,8.2875 -28.799996,8.2875 -15.9,0 -28.8,-3.7125 -28.8,-8.2875 z"
       id="path1070"
       style="fill:#f3ad21;fill-opacity:1;fill-rule:evenodd;stroke:none" />
    <path
       d="m 14.146424,1035.7783 c 0,-4.575 12.9,-8.2875 28.8,-8.2875 15.899996,0 28.799996,3.7125 28.799996,8.2875 0,4.575 -12.9,8.2875 -28.799996,8.2875 -15.9,0 -28.8,-3.7125 -28.8,-8.2875 z"
       id="path1072"
       style="fill:#f8ce7a;fill-opacity:1;fill-rule:evenodd;stroke:none" />
  </g>
</svg>
