<?xml version="1.0" encoding="UTF-8" standalone="no"?>
<!-- Created with Inkscape (http://www.inkscape.org/) -->

<svg
   xmlns:dc="http://purl.org/dc/elements/1.1/"
   xmlns:cc="http://creativecommons.org/ns#"
   xmlns:rdf="http://www.w3.org/1999/02/22-rdf-syntax-ns#"
   xmlns:svg="http://www.w3.org/2000/svg"
   xmlns="http://www.w3.org/2000/svg"
   version="1.1"
   width="111"
   height="155"
   viewBox="0 0 111 155"
   enable-background="new 0 0 111 155"
   id="svg2">
  <defs
     id="defs5874" />
  <metadata
     id="metadata5877">
    <rdf:RDF>
      <cc:Work
         rdf:about="">
        <dc:format>image/svg+xml</dc:format>
        <dc:type
           rdf:resource="http://purl.org/dc/dcmitype/StillImage" />
        <dc:title></dc:title>
      </cc:Work>
    </rdf:RDF>
  </metadata>
  <g
     transform="translate(0,-897.3606)"
     id="layer1">
    <path
       d="m 94.962299,916.21064 c 20.787501,21.65 20.075001,56.05001 -1.575,76.83751 -16.5625,15.89995 -29.775004,35.29995 -39.625004,58.21245 -8.9,-23.2875 -21.3,-43.2125 -37.2125,-59.78745 -20.7812501,-21.65 -20.0800001,-56.05001 1.575,-76.83751 21.65,-20.7875 56.05,-20.075 76.837504,1.575 z"
       id="path1922"
       style="fill:#f3ad21;fill-opacity:1;fill-rule:evenodd;stroke:none" />
    <path
       d="m 94.962299,916.21064 c 20.787501,21.65 20.075001,56.05001 -1.575,76.83751 -16.5625,15.89995 -29.775004,35.29995 -39.625004,58.21245 -8.9,-23.2875 -21.3,-43.2125 -37.2125,-59.78745 -20.7812501,-21.65 -20.0800001,-56.05001 1.575,-76.83751 21.65,-20.7875 56.05,-20.075 76.837504,1.575 z"
       id="path1924"
       style="fill:none;stroke:#f3ad21;stroke-width:1.25;stroke-linecap:butt;stroke-linejoin:miter;stroke-miterlimit:10;stroke-opacity:1;stroke-dasharray:none" />
    <path
       d="m 12.912295,953.94814 c 0,-23.7375 19.2375,-42.975 42.975,-42.975 23.737504,0 42.975004,19.2375 42.975004,42.975 0,23.73751 -19.2375,42.97501 -42.975004,42.97501 -23.7375,0 -42.975,-19.2375 -42.975,-42.97501 z"
       id="path1926"
       style="fill:#ffd243;fill-opacity:1;fill-rule:evenodd;stroke:none" />
    <path
       d="m 23.712295,953.49814 c 0,-16.45 14.075,-29.775 31.425,-29.775 17.35,0 31.425004,13.325 31.425004,29.775 0,16.45001 -14.075004,29.77501 -31.425004,29.77501 -17.35,0 -31.425,-13.325 -31.425,-29.77501 z"
       id="path1928"
       style="fill:#ffffff;fill-opacity:1;fill-rule:evenodd;stroke:none" />
    <path
       d="m 23.712295,953.49814 c 0,-16.45 14.075,-29.775 31.425,-29.775 17.35,0 31.425004,13.325 31.425004,29.775 0,16.45001 -14.075004,29.77501 -31.425004,29.77501 -17.35,0 -31.425,-13.325 -31.425,-29.77501 z"
       id="path1930"
       style="fill:none;stroke:#ffffff;stroke-width:1.19999993;stroke-linecap:butt;stroke-linejoin:miter;stroke-miterlimit:10;stroke-opacity:1;stroke-dasharray:none" />
    <path
       d="m 31.962295,954.47314 c 0,-13.0875 10.65,-23.7 23.775,-23.7 13.125,0 23.775004,10.6125 23.775004,23.7 0,13.0875 -10.650004,23.70001 -23.775004,23.70001 -13.125,0 -23.775,-10.61251 -23.775,-23.70001 z"
       id="path1932"
       style="fill:#f3ad21;fill-opacity:1;fill-rule:evenodd;stroke:none" />
    <path
       d="m 31.962295,954.47314 c 0,-13.0875 10.65,-23.7 23.775,-23.7 13.125,0 23.775004,10.6125 23.775004,23.7 0,13.0875 -10.650004,23.70001 -23.775004,23.70001 -13.125,0 -23.775,-10.61251 -23.775,-23.70001 z"
       id="path1934"
       style="fill:none;stroke:#ffffff;stroke-width:1.19999993;stroke-linecap:butt;stroke-linejoin:miter;stroke-miterlimit:10;stroke-opacity:1;stroke-dasharray:none" />
    <path
       d="m 39.762295,954.62314 c 0,-8.95 7.25,-16.2 16.2,-16.2 8.95,0 16.2,7.25 16.2,16.2 0,8.95 -7.25,16.20001 -16.2,16.20001 -8.95,0 -16.2,-7.25001 -16.2,-16.20001 z"
       id="path1936"
       style="fill:#0d0d0d;fill-opacity:1;fill-rule:evenodd;stroke:none" />
    <path
       d="m 66.462295,963.32314 c 0,-4.5625 3.725,-8.25 8.325,-8.25 4.600004,0 8.325004,3.6875 8.325004,8.25 0,4.5625 -3.725,8.25001 -8.325004,8.25001 -4.6,0 -8.325,-3.68751 -8.325,-8.25001 z"
       id="path1938"
       style="fill:#ffffff;fill-opacity:1;fill-rule:evenodd;stroke:none" />
    <path
       d="m 66.462295,963.32314 c 0,-4.5625 3.725,-8.25 8.325,-8.25 4.600004,0 8.325004,3.6875 8.325004,8.25 0,4.5625 -3.725,8.25001 -8.325004,8.25001 -4.6,0 -8.325,-3.68751 -8.325,-8.25001 z"
       id="path1940"
       style="fill:none;stroke:#ffffff;stroke-width:1.19999993;stroke-linecap:butt;stroke-linejoin:miter;stroke-miterlimit:10;stroke-opacity:1;stroke-dasharray:none" />
    <path
       d="m 21.724795,936.76064 c 14.5875,-19.3625 42.1,-23.2375 61.450004,-8.65 3.425,2.5625 6.45,5.625 8.975,9.075 l -70.425004,-0.425 z"
       id="path1942"
       style="fill:#ffd243;fill-opacity:1;fill-rule:evenodd;stroke:none" />
    <path
       d="m 21.724795,936.76064 c 14.5875,-19.3625 42.1,-23.2375 61.450004,-8.65 3.425,2.5625 6.45,5.625 8.975,9.075 l -70.425004,-0.425 z"
       id="path1944"
       style="fill:none;stroke:#ffd243;stroke-width:1.25;stroke-linecap:butt;stroke-linejoin:miter;stroke-miterlimit:10;stroke-opacity:1;stroke-dasharray:none" />
  </g>
</svg>
