<?xml version="1.0" encoding="UTF-8" standalone="no"?>
<!-- Created with Inkscape (http://www.inkscape.org/) -->

<svg
   xmlns:dc="http://purl.org/dc/elements/1.1/"
   xmlns:cc="http://creativecommons.org/ns#"
   xmlns:rdf="http://www.w3.org/1999/02/22-rdf-syntax-ns#"
   xmlns:svg="http://www.w3.org/2000/svg"
   xmlns="http://www.w3.org/2000/svg"
   version="1.1"
   width="750"
   height="400"
   viewBox="0 0 750 400"
   enable-background="new 0 0 750 400"
   id="svg2">
  <defs
     id="defs4210" />
  <metadata
     id="metadata4213">
    <rdf:RDF>
      <cc:Work
         rdf:about="">
        <dc:format>image/svg+xml</dc:format>
        <dc:type
           rdf:resource="http://purl.org/dc/dcmitype/StillImage" />
        <dc:title></dc:title>
      </cc:Work>
    </rdf:RDF>
  </metadata>
  <g
     transform="translate(0,-652.36218)"
     id="layer1">
    <path
       d="M 753.17301,774.76666 -2,916.3114 l 0,304.2813 755.17301,0 z"
       id="path200"
       style="fill:#000000;fill-opacity:1;fill-rule:evenodd;stroke:none" />
    <path
       d="m 125.98839,713.13949 c -4.40665,3.09313 -10.487,1.99145 -13.60131,-2.43639 -3.09313,-4.42782 -2.05504,-10.50816 2.35163,-13.6013 -2.07621,6.39813 1.44064,13.30473 7.85994,15.4233 1.08049,0.36015 2.2457,0.572 3.38974,0.61439 z"
       id="path212"
       style="fill:#262626;fill-opacity:1;fill-rule:evenodd;stroke:none" />
    <path
       d="m 125.98839,713.13949 c -4.40665,3.09313 -10.487,1.99145 -13.60131,-2.43639 -3.09313,-4.42782 -2.05504,-10.50816 2.35163,-13.6013 -2.07621,6.39813 1.44064,13.30473 7.85994,15.4233 1.08049,0.36015 2.2457,0.572 3.38974,0.61439 z"
       id="path214"
       style="fill:none;stroke:#262626;stroke-width:2.11858416;stroke-linecap:butt;stroke-linejoin:miter;stroke-miterlimit:10;stroke-opacity:1;stroke-dasharray:none" />
    <path
       d="m 216.09176,905.82471 -92.20076,0 -22.03329,-22.03327 0,-100.14549 10.02091,-10.02088 116.22554,0 10.02089,10.02088 0,100.14549 -22.03329,22.03327 z"
       id="path216"
       style="fill:#f3ad21;fill-opacity:1;fill-rule:evenodd;stroke:none" />
    <path
       d="m 43.639018,887.52014 94.065142,0 0,-87.9636 -94.065142,0 0,87.9636 z"
       id="path218"
       style="fill:#f3ad21;fill-opacity:1;fill-rule:evenodd;stroke:none" />
    <path
       d="m 98.298495,817.0984 11.503915,-108.81047 23.00783,0 11.5039,108.81047 -46.015645,0 z"
       id="path220"
       style="fill:#f3ad21;fill-opacity:1;fill-rule:evenodd;stroke:none" />
    <path
       d="m 166.05081,819.76781 83.13325,0"
       id="path222"
       style="fill:none;stroke:#ffffff;stroke-width:4.83037186;stroke-linecap:butt;stroke-linejoin:miter;stroke-miterlimit:10;stroke-opacity:1;stroke-dasharray:none" />
    <path
       d="m 168.08466,859.93619 83.13323,0"
       id="path224"
       style="fill:none;stroke:#ffffff;stroke-width:4.83037186;stroke-linecap:butt;stroke-linejoin:miter;stroke-miterlimit:10;stroke-opacity:1;stroke-dasharray:none" />
    <path
       d="m 66.985817,870.74094 20.486708,3.4533 -5.126974,4.57616 23.304419,-0.21187 -4.97866,4.85156 31.14318,3.98292 -44.46908,8.36842 6.207448,-5.699 -27.753448,4.9575 6.991329,-7.09725 -29.280953,5.27527 23.476031,-22.45701 z"
       id="path226"
       style="fill:#f3ad21;fill-opacity:1;fill-rule:evenodd;stroke:none" />
    <path
       d="m 68.977286,812.43751 20.507894,-3.45328 -5.126973,-4.57614 23.283243,0.23305 -4.97867,-4.87274 31.16437,-3.98295 -44.469084,-8.34721 6.207448,5.69899 -27.774635,-4.9575 7.012513,7.07607 -29.287306,-5.27527 23.4612,22.45698 z"
       id="path228"
       style="fill:#f3ad21;fill-opacity:1;fill-rule:evenodd;stroke:none" />
  </g>
</svg>
