<?xml version="1.0" encoding="UTF-8" standalone="no"?>
<!-- Created with Inkscape (http://www.inkscape.org/) -->

<svg
   xmlns:dc="http://purl.org/dc/elements/1.1/"
   xmlns:cc="http://creativecommons.org/ns#"
   xmlns:rdf="http://www.w3.org/1999/02/22-rdf-syntax-ns#"
   xmlns:svg="http://www.w3.org/2000/svg"
   xmlns="http://www.w3.org/2000/svg"
   version="1.1"
   width="64"
   height="64"
   viewBox="0 0 64 64"
   enable-background="new 0 0 64 64"
   id="svg3962">
  <defs
     id="defs3964" />
  <metadata
     id="metadata3967">
    <rdf:RDF>
      <cc:Work
         rdf:about="">
        <dc:format>image/svg+xml</dc:format>
        <dc:type
           rdf:resource="http://purl.org/dc/dcmitype/StillImage" />
        <dc:title></dc:title>
      </cc:Work>
    </rdf:RDF>
  </metadata>
  <g
     id="layer1">
    <path
       d="m 15.315172,16.696908 33.633579,0 c 4.415581,0 7.985626,-1.597126 7.985626,-3.570045 0,-1.97292 -3.570045,-3.570045 -7.985626,-3.570045 l -33.633579,0 c -4.415582,0 -7.9856266,1.597125 -7.9856266,3.570045 0,1.972919 3.5700446,3.570045 7.9856266,3.570045 z"
       id="path296"
       style="fill:#ffffff;fill-opacity:1;fill-rule:evenodd;stroke:none" />
    <path
       d="m 15.690966,34.735029 33.633579,0 c 4.415582,0 7.985626,-1.503177 7.985626,-3.382149 0,-1.87897 -3.570044,-3.382147 -7.985626,-3.382147 l -33.63358,0 c -4.415581,0 -7.9856254,1.503177 -7.9856254,3.382147 0,1.878972 3.5700444,3.382149 7.9856254,3.382149 z"
       id="path726"
       style="fill:#ffffff;fill-opacity:1;fill-rule:evenodd;stroke:none" />
    <path
       d="m 16.129392,52.773149 33.884109,0 c 4.446898,0 8.048259,-1.597125 8.048259,-3.570044 0,-1.97292 -3.601361,-3.570045 -8.048259,-3.570045 l -33.884109,0 c -4.446897,0 -8.0482583,1.597125 -8.0482583,3.570045 0,1.972919 3.6013613,3.570044 8.0482583,3.570044 z"
       id="path728"
       style="fill:#ffffff;fill-opacity:1;fill-rule:evenodd;stroke:none" />
  </g>
</svg>
