<?xml version="1.0" encoding="UTF-8" standalone="no"?>
<!-- Created with Inkscape (http://www.inkscape.org/) -->

<svg
   xmlns:dc="http://purl.org/dc/elements/1.1/"
   xmlns:cc="http://creativecommons.org/ns#"
   xmlns:rdf="http://www.w3.org/1999/02/22-rdf-syntax-ns#"
   xmlns:svg="http://www.w3.org/2000/svg"
   xmlns="http://www.w3.org/2000/svg"
   version="1.1"
   width="450"
   height="500"
   viewBox="0 0 450 500"
   enable-background="new 0 0 450 500"
   id="svg2">
  <defs
     id="defs4312">
    <clipPath
       id="clipPath248">
      <path
         d="M 0,560 960,560 960,0 0,0 0,560 z"
         id="path250" />
    </clipPath>
    <clipPath
       id="clipPath212">
      <path
         d="M 0,560 960,560 960,0 0,0 0,560 z"
         id="path214" />
    </clipPath>
    <clipPath
       id="clipPath168">
      <path
         d="M 0,560 960,560 960,0 0,0 0,560 z"
         id="path170" />
    </clipPath>
    <clipPath
       id="clipPath140">
      <path
         d="M 0,560 960,560 960,0 0,0 0,560 z"
         id="path142" />
    </clipPath>
    <clipPath
       id="clipPath16">
      <path
         d="M 0,560 960,560 960,0 0,0 0,560 z"
         id="path18" />
    </clipPath>
  </defs>
  <metadata
     id="metadata4315">
    <rdf:RDF>
      <cc:Work
         rdf:about="">
        <dc:format>image/svg+xml</dc:format>
        <dc:type
           rdf:resource="http://purl.org/dc/dcmitype/StillImage" />
        <dc:title></dc:title>
      </cc:Work>
    </rdf:RDF>
  </metadata>
  <g
     transform="matrix(0.9322221,0,0,0.9322221,0.67088,-450.37894)"
     id="layer1">
    <g
       transform="matrix(1.25,0,0,-1.25,-162.93504,1118.9918)"
       clip-path="url(#clipPath16)"
       id="g14">
      <g
         transform="translate(348.1667,432.1667)"
         id="g20">
        <path
           d="M 0,0 C -12.333,-12.5 -15.833,-47.391 -15.833,-63.833"
           id="path22"
           style="fill:none;stroke:#54e900;stroke-width:2;stroke-linecap:butt;stroke-linejoin:miter;stroke-miterlimit:10;stroke-opacity:1;stroke-dasharray:none" />
      </g>
      <g
         transform="translate(316,353)"
         id="g24">
        <path
           d="M 0,0 116,0"
           id="path26"
           style="fill:none;stroke:#54e900;stroke-width:2;stroke-linecap:butt;stroke-linejoin:miter;stroke-miterlimit:10;stroke-opacity:1;stroke-dasharray:none" />
      </g>
      <g
         transform="translate(333.0795,458.6095)"
         id="g28">
        <path
           d="M 0,0 -1.183,0.024 C -0.816,-0.027 -0.416,-0.028 0,0 z"
           id="path30"
           style="fill:none;stroke:#54e900;stroke-width:2;stroke-linecap:butt;stroke-linejoin:miter;stroke-miterlimit:10;stroke-opacity:1;stroke-dasharray:none" />
      </g>
      <g
         transform="translate(443,340.75)"
         id="g32">
        <path
           d="m 0,0 c -0.854,6.747 -6.373,9.142 -6,13.125 0.5,5.333 2.94,3.322 5,7.562 1.782,3.667 -2.333,32.698 -10,51.532 -2.385,5.858 -19.409,30.821 -23.002,36.623 -2.057,3.322 -0.498,2.9 -0.498,5.9 0,0.915 0.468,1.366 1.157,1.592 l -71.442,1.421 c 0.184,-0.232 0.289,-0.554 0.285,-1.006 -0.061,-6.343 1.964,-4.346 -1.5,-8.499 -5.319,-6.378 -18,-26 -21.5,-35 -3.5,-9 -9,-26.5 -9.5,-36 -0.5,-9.5 -2.25,-16.5 3,-21 1.599,-1.371 0.967,-8.767 -3.25,-11.5 -1.204,-0.78 -1.843,-9.5 -2.165,-21.5 l 139.988,0 C 0.45,-7.75 0.265,-2.093 0,0"
           id="path34"
           style="fill:#f3ad21;fill-opacity:1;fill-rule:nonzero;stroke:none" />
      </g>
      <g
         transform="translate(443,340.75)"
         id="g36">
        <path
           d="m 0,0 c -0.854,6.747 -6.373,9.142 -6,13.125 0.5,5.333 2.94,3.322 5,7.562 1.782,3.667 -2.333,32.698 -10,51.532 -2.385,5.858 -19.409,30.821 -23.002,36.623 -2.057,3.322 -0.498,2.9 -0.498,5.9 0,0.915 0.468,1.366 1.157,1.592 l -71.442,1.421 c 0.184,-0.232 0.289,-0.554 0.285,-1.006 -0.061,-6.343 1.964,-4.346 -1.5,-8.499 -5.319,-6.378 -18,-26 -21.5,-35 -3.5,-9 -9,-26.5 -9.5,-36 -0.5,-9.5 -2.25,-16.5 3,-21 1.599,-1.371 0.967,-8.767 -3.25,-11.5 -1.204,-0.78 -1.843,-9.5 -2.165,-21.5 l 139.988,0 C 0.45,-7.75 0.265,-2.093 0,0 z"
           id="path38"
           style="fill:none;stroke:#f3ad21;stroke-width:2;stroke-linecap:butt;stroke-linejoin:miter;stroke-miterlimit:10;stroke-opacity:1;stroke-dasharray:none" />
      </g>
      <g
         transform="translate(415,458)"
         id="g40">
        <path
           d="m 0,0 c 1.5,1.5 0.5,31.429 0.5,38.5 0,11.75 -77.798,8.231 -82.5,4 -5,-4.5 -3.518,-36.503 -3,-40 0.185,-1.248 0.925,-1.733 1.896,-1.867 l 1.184,-0.024 c 1.99,0.133 4.336,0.906 5.135,-0.102 l 71.442,-1.42 C -3.773,-0.397 -1.043,-1.043 0,0 z"
           id="path42"
           style="fill:none;stroke:#f3ad21;stroke-width:2;stroke-linecap:butt;stroke-linejoin:miter;stroke-miterlimit:10;stroke-opacity:1;stroke-dasharray:none" />
      </g>
      <g
         transform="translate(303.3715,128)"
         id="g44">
        <path
           d="m 0,0 139.608,0 c -0.001,2 -0.003,2.397 -0.003,3.51 0,4.943 0.475,57.49 0.698,108.49 L -0.016,112 C -0.292,65 -0.182,13.002 0,0 z"
           id="path46"
           style="fill:none;stroke:#ffd243;stroke-width:2;stroke-linecap:butt;stroke-linejoin:miter;stroke-miterlimit:10;stroke-opacity:1;stroke-dasharray:none" />
      </g>
      <g
         transform="translate(303.5854,323)"
         id="g48">
        <path
           d="m 0,0 c -0.606,-21 -0.085,-53.447 -0.085,-59 0,-2.009 -0.068,-11 -0.145,-25 l 140.319,0 c 0.142,33 0.174,65 -0.101,84 L 0,0 z"
           id="path50"
           style="fill:#ffd243;fill-opacity:1;fill-rule:nonzero;stroke:none" />
      </g>
      <g
         transform="translate(303.5854,323)"
         id="g52">
        <path
           d="m 0,0 c -0.606,-21 -0.085,-53.447 -0.085,-59 0,-2.009 -0.068,-11 -0.145,-25 l 140.319,0 c 0.142,33 0.174,65 -0.101,84 L 0,0 z"
           id="path54"
           style="fill:none;stroke:#ffd243;stroke-width:2;stroke-linecap:butt;stroke-linejoin:miter;stroke-miterlimit:10;stroke-opacity:1;stroke-dasharray:none" />
      </g>
      <g
         transform="translate(304.25,106.75)"
         id="g56">
        <path
           d="m 0,0 c 1.956,-7 2.5,-16.375 9.25,-21.125 4.941,-3.477 103.5,-4.687 110.5,-2.187 7,2.5 12.056,1.508 15,8.781 3.839,9.484 3.987,24.781 3.98,35.781 l -139.608,0 C -0.708,10.25 -0.43,1.54 0,0"
           id="path58"
           style="fill:#f3ad21;fill-opacity:1;fill-rule:nonzero;stroke:none" />
      </g>
      <g
         transform="translate(304.25,106.75)"
         id="g60">
        <path
           d="m 0,0 c 1.956,-7 2.5,-16.375 9.25,-21.125 4.941,-3.477 103.5,-4.687 110.5,-2.187 7,2.5 12.056,1.508 15,8.781 3.839,9.484 3.987,24.781 3.98,35.781 l -139.608,0 C -0.708,10.25 -0.43,1.54 0,0 z"
           id="path62"
           style="fill:none;stroke:#f3ad21;stroke-width:2;stroke-linecap:butt;stroke-linejoin:miter;stroke-miterlimit:10;stroke-opacity:1;stroke-dasharray:none" />
      </g>
      <g
         transform="translate(335,502)"
         id="g64">
        <path
           d="M 0,0 0,-43"
           id="path66"
           style="fill:none;stroke:#f3ad21;stroke-width:2;stroke-linecap:butt;stroke-linejoin:miter;stroke-miterlimit:10;stroke-opacity:1;stroke-dasharray:none" />
      </g>
      <g
         transform="translate(340,502)"
         id="g68">
        <path
           d="M 0,0 0,-44"
           id="path70"
           style="fill:none;stroke:#f3ad21;stroke-width:2;stroke-linecap:butt;stroke-linejoin:miter;stroke-miterlimit:10;stroke-opacity:1;stroke-dasharray:none" />
      </g>
      <g
         transform="translate(345,503)"
         id="g72">
        <path
           d="M 0,0 0,-45"
           id="path74"
           style="fill:none;stroke:#f3ad21;stroke-width:2;stroke-linecap:butt;stroke-linejoin:miter;stroke-miterlimit:10;stroke-opacity:1;stroke-dasharray:none" />
      </g>
      <g
         transform="translate(350,504)"
         id="g76">
        <path
           d="M 0,0 0,-46"
           id="path78"
           style="fill:none;stroke:#f3ad21;stroke-width:2;stroke-linecap:butt;stroke-linejoin:miter;stroke-miterlimit:10;stroke-opacity:1;stroke-dasharray:none" />
      </g>
      <g
         transform="translate(355,504)"
         id="g80">
        <path
           d="M 0,0 0,-46"
           id="path82"
           style="fill:none;stroke:#f3ad21;stroke-width:2;stroke-linecap:butt;stroke-linejoin:miter;stroke-miterlimit:10;stroke-opacity:1;stroke-dasharray:none" />
      </g>
      <g
         transform="translate(360,504)"
         id="g84">
        <path
           d="M 0,0 0,-46"
           id="path86"
           style="fill:none;stroke:#f3ad21;stroke-width:2;stroke-linecap:butt;stroke-linejoin:miter;stroke-miterlimit:10;stroke-opacity:1;stroke-dasharray:none" />
      </g>
      <g
         transform="translate(365,504)"
         id="g88">
        <path
           d="M 0,0 0,-46"
           id="path90"
           style="fill:none;stroke:#f3ad21;stroke-width:2;stroke-linecap:butt;stroke-linejoin:miter;stroke-miterlimit:10;stroke-opacity:1;stroke-dasharray:none" />
      </g>
      <g
         transform="translate(370,504)"
         id="g92">
        <path
           d="M 0,0 0,-46"
           id="path94"
           style="fill:none;stroke:#f3ad21;stroke-width:2;stroke-linecap:butt;stroke-linejoin:miter;stroke-miterlimit:10;stroke-opacity:1;stroke-dasharray:none" />
      </g>
      <g
         transform="translate(375,504)"
         id="g96">
        <path
           d="M 0,0 0,-46"
           id="path98"
           style="fill:none;stroke:#f3ad21;stroke-width:2;stroke-linecap:butt;stroke-linejoin:miter;stroke-miterlimit:10;stroke-opacity:1;stroke-dasharray:none" />
      </g>
      <g
         transform="translate(380,504)"
         id="g100">
        <path
           d="M 0,0 0,-46"
           id="path102"
           style="fill:none;stroke:#f3ad21;stroke-width:2;stroke-linecap:butt;stroke-linejoin:miter;stroke-miterlimit:10;stroke-opacity:1;stroke-dasharray:none" />
      </g>
      <g
         transform="translate(385,504)"
         id="g104">
        <path
           d="M 0,0 0,-46"
           id="path106"
           style="fill:none;stroke:#f3ad21;stroke-width:2;stroke-linecap:butt;stroke-linejoin:miter;stroke-miterlimit:10;stroke-opacity:1;stroke-dasharray:none" />
      </g>
      <g
         transform="translate(390,504)"
         id="g108">
        <path
           d="M 0,0 0,-47"
           id="path110"
           style="fill:none;stroke:#f3ad21;stroke-width:2;stroke-linecap:butt;stroke-linejoin:miter;stroke-miterlimit:10;stroke-opacity:1;stroke-dasharray:none" />
      </g>
      <g
         transform="translate(395,504)"
         id="g112">
        <path
           d="M 0,0 0,-47"
           id="path114"
           style="fill:none;stroke:#f3ad21;stroke-width:2;stroke-linecap:butt;stroke-linejoin:miter;stroke-miterlimit:10;stroke-opacity:1;stroke-dasharray:none" />
      </g>
      <g
         transform="translate(400,503)"
         id="g116">
        <path
           d="M 0,0 0,-46"
           id="path118"
           style="fill:none;stroke:#f3ad21;stroke-width:2;stroke-linecap:butt;stroke-linejoin:miter;stroke-miterlimit:10;stroke-opacity:1;stroke-dasharray:none" />
      </g>
      <g
         transform="translate(405,502)"
         id="g120">
        <path
           d="M 0,0 0,-45"
           id="path122"
           style="fill:none;stroke:#f3ad21;stroke-width:2;stroke-linecap:butt;stroke-linejoin:miter;stroke-miterlimit:10;stroke-opacity:1;stroke-dasharray:none" />
      </g>
      <g
         transform="translate(410,501)"
         id="g124">
        <path
           d="M 0,0 0,-44"
           id="path126"
           style="fill:none;stroke:#f3ad21;stroke-width:2;stroke-linecap:butt;stroke-linejoin:miter;stroke-miterlimit:10;stroke-opacity:1;stroke-dasharray:none" />
      </g>
      <g
         transform="translate(292.9092,225.9114)"
         id="g128">
        <path
           d="m 0,0 c -1.644,6.535 -3.528,13.048 -6.418,19.135 -10.716,22.576 -36.056,37.312 -60.978,35.463 -24.921,-1.85 -47.807,-20.167 -55.074,-44.077 -7.266,-23.91 1.56,-51.863 21.238,-67.267 16.453,-12.879 39.599,-16.278 59.292,-9.569 1.118,-0.88 2.35,-1.639 3.586,-2.27 8.292,-4.24 18.187,-5.245 27.163,-2.759 -0.309,2.795 -4.043,3.299 -6.791,3.899 -4.766,1.041 -8.8,4.799 -10.323,9.415 15.513,8.325 29.515,21.616 30.786,38.868 C 2.956,-12.71 1.578,-6.274 0,0"
           id="path130"
           style="fill:#f3ad21;fill-opacity:1;fill-rule:nonzero;stroke:none" />
      </g>
    </g>
    <g
       transform="matrix(1.25,0,0,-1.25,-162.93504,1118.9918)"
       clip-path="url(#clipPath140)"
       id="g138">
      <g
         transform="translate(338.7744,160.0474)"
         id="g144"
         style="fill:#000000;fill-opacity:1">
        <path
           d="m 0,0 0,6.891 -7.031,0 0,39.586 7.031,0 0,6.961 -21.164,0 0,-6.961 7.031,0 0,-39.586 -7.031,0 0,-6.891 L 0,0 z"
           id="path146"
           style="fill:#000000;fill-opacity:1;stroke:#000000;stroke-width:2;stroke-linecap:butt;stroke-linejoin:miter;stroke-miterlimit:10;stroke-opacity:1;stroke-dasharray:none" />
      </g>
      <g
         transform="translate(371.3643,190.7739)"
         id="g148"
         style="fill:#000000;fill-opacity:1">
        <path
           d="m 0,0 c -0.118,1.969 -0.352,3.996 -0.703,6.082 -0.352,2.085 -0.844,4.148 -1.477,6.188 -0.633,2.039 -1.466,3.843 -2.496,5.414 -1.032,1.569 -2.297,2.823 -3.797,3.761 -1.501,0.937 -3.281,1.383 -5.343,1.336 -2.813,-0.094 -5.204,-0.984 -7.172,-2.672 -1.969,-1.687 -3.563,-3.832 -4.782,-6.433 -1.219,-2.602 -2.109,-5.52 -2.671,-8.754 -0.563,-3.235 -0.869,-6.422 -0.914,-9.563 -0.141,-8.531 0.984,-15 3.375,-19.406 2.39,-4.407 5.952,-6.633 10.687,-6.68 2.577,0 4.804,0.644 6.68,1.934 1.874,1.289 3.433,3.082 4.675,5.379 1.242,2.296 2.191,5.003 2.848,8.121 0.656,3.117 1.055,6.48 1.195,10.09 C 0.151,-3.704 0.116,-1.969 0,0 z m -7.84,-12.727 c -0.376,-2.297 -0.903,-4.253 -1.582,-5.871 -0.68,-1.617 -1.512,-2.847 -2.496,-3.691 -0.984,-0.844 -2.086,-1.266 -3.305,-1.266 -2.25,0.047 -4.032,1.734 -5.343,5.063 -1.313,3.327 -1.923,7.921 -1.829,13.781 0.046,1.828 0.211,3.902 0.493,6.223 0.281,2.32 0.749,4.511 1.406,6.574 0.656,2.062 1.535,3.797 2.637,5.203 1.1,1.406 2.496,2.132 4.183,2.18 1.03,0.046 1.957,-0.434 2.778,-1.442 0.819,-1.008 1.522,-2.414 2.109,-4.218 0.585,-1.806 1.019,-3.962 1.301,-6.469 0.281,-2.508 0.397,-5.262 0.351,-8.262 -0.094,-2.907 -0.328,-5.508 -0.703,-7.805 z"
           id="path150"
           style="fill:#000000;fill-opacity:1;stroke:#000000;stroke-width:2;stroke-linecap:butt;stroke-linejoin:miter;stroke-miterlimit:10;stroke-opacity:1;stroke-dasharray:none" />
      </g>
      <g
         transform="translate(377.7979,160.188)"
         id="g152"
         style="fill:#000000;fill-opacity:1">
        <path
           d="m 0,0 c 5.062,-0.281 9.128,0.222 12.199,1.512 3.07,1.288 5.449,3.105 7.137,5.449 1.687,2.343 2.8,5.098 3.34,8.262 0.538,3.164 0.784,6.48 0.738,9.949 -0.047,2.109 -0.118,4.3 -0.211,6.574 -0.095,2.273 -0.376,4.488 -0.844,6.645 -0.469,2.155 -1.172,4.183 -2.109,6.082 C 19.312,46.371 17.976,48 16.242,49.359 14.507,50.718 12.328,51.75 9.703,52.453 7.077,53.156 3.843,53.39 0,53.156 L 0,0 z m 6.328,46.055 c 0.141,0 0.187,0.011 0.141,0.035 -0.048,0.023 -0.106,0.046 -0.176,0.07 -0.07,0.023 -0.118,0.035 -0.141,0.035 l 0.176,0 c 1.688,0.094 3.129,-0.223 4.324,-0.949 1.196,-0.727 2.18,-1.687 2.953,-2.883 0.774,-1.195 1.372,-2.578 1.793,-4.148 0.422,-1.571 0.727,-3.164 0.914,-4.781 0.187,-1.618 0.292,-3.177 0.317,-4.676 0.023,-1.501 0.035,-2.813 0.035,-3.938 C 16.617,22.852 16.488,20.824 16.277,18.738 16.066,16.652 15.62,14.753 14.941,13.043 14.261,11.332 13.242,9.925 11.883,8.824 10.522,7.722 8.671,7.172 6.328,7.172 l 0,38.883 z"
           id="path154"
           style="fill:#000000;fill-opacity:1;stroke:#000000;stroke-width:2;stroke-linecap:butt;stroke-linejoin:miter;stroke-miterlimit:10;stroke-opacity:1;stroke-dasharray:none" />
      </g>
      <g
         transform="translate(422.0947,213.5552)"
         id="g156"
         style="fill:#000000;fill-opacity:1">
        <path
           d="m 0,0 -6.75,0 -11.883,-53.508 6.82,0 3.586,16.242 9.704,0 3.585,-16.242 6.821,0 L 0,0 z m -3.375,-15.258 3.305,-15.117 -6.68,0 3.375,15.117 z"
           id="path158"
           style="fill:#000000;fill-opacity:1;stroke:#000000;stroke-width:2;stroke-linecap:butt;stroke-linejoin:miter;stroke-miterlimit:10;stroke-opacity:1;stroke-dasharray:none" />
      </g>
    </g>
    <g
       transform="matrix(1.25,0,0,-1.25,-162.93504,1118.9918)"
       clip-path="url(#clipPath168)"
       id="g166">
      <g
         transform="translate(368.7827,257.4741)"
         id="g172">
        <path
           d="m 0,0 c -0.336,0.288 -0.625,0.324 -0.864,0.108 -0.241,-0.216 -0.48,-0.444 -0.72,-0.684 l -1.296,-1.44 c -0.673,-0.769 -1.368,-1.537 -2.088,-2.304 -0.72,-0.768 -1.465,-1.512 -2.232,-2.232 -0.624,-0.529 -1.285,-1.056 -1.98,-1.584 -0.696,-0.529 -1.452,-0.889 -2.268,-1.08 -0.385,-0.097 -0.768,-0.097 -1.152,0 -0.385,0.095 -0.696,0.335 -0.936,0.72 -0.097,0.144 -0.156,0.311 -0.18,0.504 -0.025,0.191 -0.036,0.384 -0.036,0.576 0,0.671 0.083,1.343 0.252,2.016 0.167,0.671 0.371,1.319 0.612,1.944 0.288,0.959 0.599,1.883 0.936,2.772 0.335,0.888 0.695,1.788 1.08,2.7 0.864,2.16 1.751,4.259 2.664,6.3 0.911,2.039 1.8,4.14 2.664,6.3 0.527,1.104 1.008,2.232 1.44,3.384 0.432,1.152 0.839,2.304 1.224,3.456 0.239,0.96 0.443,1.919 0.612,2.88 0.167,0.959 0.18,1.919 0.036,2.88 -0.097,0.672 -0.3,1.284 -0.612,1.836 -0.313,0.551 -0.756,0.995 -1.332,1.332 -0.817,0.432 -1.717,0.587 -2.7,0.468 -0.984,-0.121 -1.884,-0.373 -2.7,-0.756 -2.209,-0.864 -4.153,-2.185 -5.832,-3.96 -1.681,-1.777 -3.168,-3.625 -4.464,-5.544 0.191,0.864 0.348,1.86 0.468,2.988 0.119,1.127 0.095,2.196 -0.072,3.204 -0.169,1.008 -0.552,1.896 -1.152,2.664 -0.601,0.767 -1.501,1.224 -2.7,1.368 -1.056,0.144 -2.065,0.059 -3.024,-0.252 -0.961,-0.313 -1.884,-0.756 -2.772,-1.332 -0.889,-0.576 -1.717,-1.224 -2.484,-1.944 -0.768,-0.72 -1.465,-1.44 -2.088,-2.16 -1.105,-1.249 -2.113,-2.545 -3.024,-3.888 l 1.224,3.096 c 0.191,0.432 0.36,0.864 0.504,1.296 0.144,0.432 0.24,0.911 0.288,1.44 0.047,0.816 -0.156,1.512 -0.612,2.088 -0.457,0.576 -1.069,0.983 -1.836,1.224 -0.961,0.335 -1.969,0.443 -3.024,0.324 -1.056,-0.121 -2.064,-0.349 -3.024,-0.684 -0.817,-0.288 -1.645,-0.684 -2.484,-1.188 -0.84,-0.504 -1.524,-1.141 -2.052,-1.908 -0.241,-0.288 -0.445,-0.684 -0.612,-1.188 -0.169,-0.504 -0.012,-0.853 0.468,-1.044 0.239,-0.097 0.443,-0.108 0.612,-0.036 0.167,0.072 0.299,0.191 0.396,0.36 0.096,0.167 0.191,0.36 0.288,0.576 0.096,0.216 0.191,0.396 0.288,0.54 0.623,0.816 1.451,1.44 2.484,1.872 1.032,0.432 2.027,0.743 2.988,0.936 0.335,0.047 0.756,0.083 1.26,0.108 0.504,0.024 0.983,0 1.44,-0.072 0.456,-0.072 0.852,-0.241 1.188,-0.504 0.335,-0.265 0.528,-0.637 0.576,-1.116 0.047,-0.576 -0.061,-1.188 -0.324,-1.836 -0.264,-0.648 -0.516,-1.236 -0.756,-1.764 -1.44,-3.649 -2.905,-7.248 -4.392,-10.8 C -43.32,9.407 -44.833,5.832 -46.368,2.232 L -51.12,-9.144 c -0.097,-0.241 -0.216,-0.529 -0.36,-0.864 -0.144,-0.337 -0.121,-0.624 0.072,-0.864 0.24,-0.288 0.515,-0.396 0.828,-0.324 0.311,0.072 0.515,0.252 0.612,0.54 l 0.216,0.576 c 0.479,1.055 0.936,2.099 1.368,3.132 0.432,1.031 0.864,2.075 1.296,3.132 1.152,2.832 2.304,5.652 3.456,8.46 1.152,2.808 2.423,5.555 3.816,8.244 1.008,1.919 2.099,3.791 3.276,5.616 1.176,1.824 2.459,3.575 3.852,5.256 1.008,1.152 2.171,2.279 3.492,3.384 1.32,1.104 2.772,1.775 4.356,2.016 0.383,0.095 0.779,0.132 1.188,0.108 0.407,-0.025 0.803,-0.157 1.188,-0.396 0.383,-0.192 0.672,-0.432 0.864,-0.72 0.191,-0.288 0.335,-0.625 0.432,-1.008 0.24,-0.817 0.335,-1.681 0.288,-2.592 -0.048,-0.912 -0.169,-1.777 -0.36,-2.592 -0.385,-2.16 -1.02,-4.212 -1.908,-6.156 -0.889,-1.944 -1.74,-3.924 -2.556,-5.94 -1.008,-2.352 -2.005,-4.693 -2.988,-7.02 -0.984,-2.329 -1.956,-4.669 -2.916,-7.02 l -2.52,-5.904 c -0.097,-0.192 -0.18,-0.373 -0.252,-0.54 -0.072,-0.169 -0.133,-0.349 -0.18,-0.54 -0.097,-0.625 0.167,-0.936 0.792,-0.936 0.24,-0.049 0.419,0 0.54,0.144 0.119,0.144 0.227,0.335 0.324,0.576 l 0.504,1.224 c 0.96,2.256 1.908,4.487 2.844,6.696 0.936,2.207 1.86,4.464 2.772,6.768 0.816,1.823 1.595,3.66 2.34,5.508 0.744,1.847 1.595,3.636 2.556,5.364 0.72,1.392 1.5,2.736 2.34,4.032 0.839,1.296 1.739,2.567 2.7,3.816 1.055,1.296 2.22,2.544 3.492,3.744 1.271,1.199 2.7,2.135 4.284,2.808 0.335,0.144 0.731,0.275 1.188,0.396 0.456,0.119 0.9,0.204 1.332,0.252 0.432,0.047 0.852,0 1.26,-0.144 0.407,-0.144 0.731,-0.385 0.972,-0.72 0.432,-0.624 0.623,-1.345 0.576,-2.16 -0.048,-0.817 -0.12,-1.561 -0.216,-2.232 -0.241,-1.152 -0.552,-2.281 -0.936,-3.384 -0.385,-1.105 -0.817,-2.209 -1.296,-3.312 -0.48,-1.2 -0.961,-2.376 -1.44,-3.528 -0.48,-1.152 -0.984,-2.329 -1.512,-3.528 -0.913,-2.016 -1.8,-4.044 -2.664,-6.084 -0.864,-2.041 -1.656,-4.117 -2.376,-6.228 -0.241,-0.673 -0.457,-1.357 -0.648,-2.052 -0.192,-0.696 -0.336,-1.404 -0.432,-2.124 -0.097,-0.432 -0.133,-0.889 -0.108,-1.368 0.023,-0.48 0.132,-0.936 0.324,-1.368 0.288,-0.72 0.792,-1.236 1.512,-1.548 0.72,-0.313 1.44,-0.421 2.16,-0.324 0.911,0.144 1.751,0.479 2.52,1.008 0.767,0.528 1.487,1.08 2.16,1.656 0.864,0.72 1.679,1.487 2.448,2.304 0.767,0.816 1.536,1.631 2.304,2.448 0.239,0.288 0.479,0.563 0.72,0.828 0.24,0.263 0.479,0.54 0.72,0.828 0.191,0.239 0.396,0.479 0.612,0.72 0.216,0.24 0.252,0.504 0.108,0.792 L 0,0 z"
           id="path174"
           style="fill:none;stroke:#ffffff;stroke-width:3;stroke-linecap:butt;stroke-linejoin:miter;stroke-miterlimit:10;stroke-opacity:1;stroke-dasharray:none" />
      </g>
      <g
         transform="translate(386.4224,257.6899)"
         id="g176">
        <path
           d="m 0,0 -4.968,-5.544 c -0.624,-0.673 -1.249,-1.321 -1.872,-1.944 -0.624,-0.624 -1.321,-1.177 -2.088,-1.656 -0.192,-0.097 -0.421,-0.216 -0.684,-0.36 -0.264,-0.144 -0.516,-0.169 -0.756,-0.072 -0.384,0.096 -0.588,0.36 -0.612,0.792 -0.024,0.432 -0.012,0.792 0.036,1.08 0.24,1.008 0.623,1.968 1.152,2.88 0.528,0.911 1.055,1.8 1.584,2.664 0.335,0.528 0.672,1.056 1.008,1.584 0.335,0.528 0.648,1.08 0.936,1.656 0.576,0.96 0.96,1.92 1.152,2.88 0.096,0.479 0.048,0.936 -0.144,1.368 -0.192,0.432 -0.552,0.744 -1.08,0.936 -0.432,0.191 -0.876,0.263 -1.332,0.216 -0.457,-0.048 -0.925,-0.048 -1.404,0 -0.241,0.047 -0.372,0.096 -0.396,0.144 -0.025,0.047 -0.012,0.168 0.036,0.36 0,0.144 0.024,0.276 0.072,0.396 0.047,0.12 0.096,0.252 0.144,0.396 0.096,0.24 0.216,0.479 0.36,0.72 0.144,0.24 0.24,0.479 0.288,0.72 0.047,0.384 -0.12,0.659 -0.504,0.828 -0.385,0.167 -0.696,0.083 -0.936,-0.252 L -11.088,8.568 -13.392,5.76 C -14.064,4.943 -14.749,4.151 -15.444,3.384 -16.14,2.616 -16.848,1.847 -17.568,1.08 l -0.54,-0.54 c -0.216,-0.216 -0.421,-0.444 -0.612,-0.684 -0.192,-0.241 -0.288,-0.481 -0.288,-0.72 0,-0.24 0.144,-0.432 0.432,-0.576 0.24,-0.144 0.456,-0.169 0.648,-0.072 0.191,0.095 0.384,0.24 0.576,0.432 l 1.368,1.44 c 0.816,0.96 1.644,1.908 2.484,2.844 0.839,0.936 1.667,1.908 2.484,2.916 0.191,-0.529 0.492,-0.864 0.9,-1.008 0.408,-0.144 0.852,-0.241 1.332,-0.288 0.191,0 0.576,0.011 1.152,0.036 0.576,0.024 0.888,-0.084 0.936,-0.324 C -6.648,4.104 -6.744,3.647 -6.984,3.168 -7.225,2.688 -7.44,2.256 -7.632,1.872 -7.968,1.296 -8.292,0.744 -8.604,0.216 -8.917,-0.312 -9.241,-0.84 -9.576,-1.368 c -0.624,-0.961 -1.236,-1.969 -1.836,-3.024 -0.601,-1.056 -0.997,-2.16 -1.188,-3.312 -0.048,-0.432 -0.036,-0.864 0.036,-1.296 0.072,-0.432 0.216,-0.828 0.432,-1.188 0.216,-0.36 0.504,-0.637 0.864,-0.828 0.36,-0.192 0.803,-0.264 1.332,-0.216 0.672,0.096 1.284,0.336 1.836,0.72 0.551,0.384 1.091,0.792 1.62,1.224 0.816,0.672 1.584,1.392 2.304,2.16 0.72,0.767 1.415,1.559 2.088,2.376 l 2.52,2.808 0.72,0.864 c 0.191,0.191 0.264,0.396 0.216,0.612 C 1.32,-0.252 1.224,-0.072 1.08,0.072 0.936,0.216 0.768,0.288 0.576,0.288 0.384,0.288 0.191,0.191 0,0 z"
           id="path178"
           style="fill:none;stroke:#ffffff;stroke-width:3;stroke-linecap:butt;stroke-linejoin:miter;stroke-miterlimit:10;stroke-opacity:1;stroke-dasharray:none" />
      </g>
      <g
         transform="translate(391.4263,251.1021)"
         id="g180">
        <path
           d="M 0,0 C -0.313,0.312 -0.709,0.468 -1.188,0.468 -1.62,0.468 -1.993,0.312 -2.304,0 c -0.313,-0.313 -0.468,-0.684 -0.468,-1.116 0,-0.481 0.155,-0.877 0.468,-1.188 0.311,-0.313 0.684,-0.468 1.116,-0.468 0.479,0 0.875,0.155 1.188,0.468 0.312,0.311 0.468,0.707 0.468,1.188 C 0.468,-0.684 0.312,-0.313 0,0 z"
           id="path182"
           style="fill:none;stroke:#ffffff;stroke-width:3;stroke-linecap:butt;stroke-linejoin:miter;stroke-miterlimit:10;stroke-opacity:1;stroke-dasharray:none" />
      </g>
      <g
         transform="translate(331,355.5718)"
         id="g188">
        <path
           d="M 0,0 C -5,0 -5,-7.553 0,-7.553 5,-7.553 5,0 0,0"
           id="path190"
           style="fill:#ffd243;fill-opacity:1;fill-rule:nonzero;stroke:none" />
      </g>
      <g
         transform="translate(331,355.5718)"
         id="g192">
        <path
           d="M 0,0 C -5,0 -5,-7.553 0,-7.553 5,-7.553 5,0 0,0 z"
           id="path194"
           style="fill:none;stroke:#ffd243;stroke-width:2;stroke-linecap:butt;stroke-linejoin:miter;stroke-miterlimit:10;stroke-opacity:1;stroke-dasharray:none" />
      </g>
      <g
         transform="translate(343,365.5768)"
         id="g196">
        <path
           d="M 0,0 C -3,0 -3,-6.05 0,-6.05 5,-6.05 5,0 0,0"
           id="path198"
           style="fill:#ffd243;fill-opacity:1;fill-rule:nonzero;stroke:none" />
      </g>
      <g
         transform="translate(337,379.9047)"
         id="g200">
        <path
           d="M 0,0 C -3,0 -3,-5.775 0,-5.775 4,-5.775 4,0 0,0"
           id="path202"
           style="fill:#ffd243;fill-opacity:1;fill-rule:nonzero;stroke:none" />
      </g>
    </g>
    <g
       transform="matrix(1.25,0,0,-1.25,-162.93504,1118.9918)"
       clip-path="url(#clipPath212)"
       id="g210"
       style="fill:#ffffff;fill-opacity:1">
      <g
         transform="translate(192.2407,227.9233)"
         id="g216"
         style="fill:#ffffff;fill-opacity:1;stroke:none">
        <path
           d="M 0,0 C -0.032,0.192 -0.112,0.408 -0.24,0.648 -0.368,0.888 -0.624,1.04 -1.008,1.104 -1.392,1.168 -1.712,1.04 -1.968,0.72 -2.225,0.4 -2.272,0.048 -2.112,-0.336 c 0.064,-0.192 0.16,-0.32 0.288,-0.384 l 0.24,-0.192 c 0.032,-0.032 0.032,-0.08 0,-0.144 -0.096,-0.224 -0.2,-0.424 -0.312,-0.6 C -2.008,-1.832 -2.096,-2 -2.16,-2.16 -2.288,-2.352 -2.408,-2.544 -2.52,-2.736 -2.632,-2.928 -2.768,-3.104 -2.928,-3.264 l -0.816,-1.2 c -0.192,-0.352 -0.112,-0.64 0.24,-0.864 0.16,-0.096 0.328,-0.12 0.504,-0.072 0.176,0.048 0.312,0.152 0.408,0.312 0.16,0.224 0.32,0.44 0.48,0.648 0.16,0.209 0.32,0.424 0.48,0.648 0.352,0.544 0.696,1.111 1.032,1.704 0.336,0.592 0.536,1.208 0.6,1.848 L 0,0 z M 4.656,0 C 4.624,0.192 4.543,0.408 4.416,0.648 4.288,0.888 4.032,1.04 3.648,1.104 3.264,1.168 2.944,1.04 2.688,0.72 2.432,0.4 2.384,0.048 2.544,-0.336 2.608,-0.528 2.704,-0.656 2.832,-0.72 l 0.24,-0.192 c 0.032,-0.032 0.032,-0.08 0,-0.144 C 2.976,-1.28 2.872,-1.48 2.76,-1.656 2.647,-1.832 2.56,-2 2.496,-2.16 2.368,-2.352 2.248,-2.544 2.136,-2.736 2.023,-2.928 1.888,-3.104 1.728,-3.264 l -0.816,-1.2 c -0.192,-0.352 -0.113,-0.64 0.24,-0.864 0.16,-0.096 0.328,-0.12 0.504,-0.072 0.176,0.048 0.312,0.152 0.408,0.312 0.16,0.224 0.32,0.44 0.48,0.648 0.16,0.209 0.32,0.424 0.48,0.648 0.352,0.544 0.696,1.111 1.032,1.704 0.336,0.592 0.536,1.208 0.6,1.848 l 0,0.24 z"
           id="path218"
           style="fill:#ffffff;fill-opacity:1;stroke:none" />
      </g>
      <g
         transform="translate(212.6167,253.4595)"
         id="g220"
         style="fill:#ffffff;fill-opacity:1;stroke:none">
        <path
           d="m 0,0 c -0.56,-0.353 -1,-0.737 -1.32,-1.152 -0.384,-0.449 -0.728,-0.92 -1.032,-1.416 -0.304,-0.496 -0.584,-1.001 -0.84,-1.512 -0.288,-0.576 -0.576,-1.152 -0.864,-1.728 -0.288,-0.576 -0.56,-1.152 -0.816,-1.728 -0.384,-0.833 -0.744,-1.68 -1.08,-2.544 -0.336,-0.864 -0.68,-1.728 -1.032,-2.592 -0.256,-0.545 -0.488,-1.097 -0.696,-1.656 -0.208,-0.56 -0.424,-1.128 -0.648,-1.704 -0.065,-0.096 -0.104,-0.192 -0.12,-0.288 -0.016,-0.096 -0.056,-0.177 -0.12,-0.24 -0.032,-0.096 -0.08,-0.192 -0.144,-0.288 -0.064,-0.096 -0.128,-0.176 -0.192,-0.24 -0.16,-0.161 -0.296,-0.32 -0.408,-0.48 -0.112,-0.161 -0.248,-0.32 -0.408,-0.48 l -1.152,-1.488 c -0.128,-0.161 -0.304,-0.36 -0.528,-0.6 -0.224,-0.24 -0.305,-0.473 -0.24,-0.696 0.064,-0.257 0.208,-0.384 0.432,-0.384 0.224,0 0.416,0.079 0.576,0.24 0.16,0.192 0.312,0.384 0.456,0.576 0.144,0.192 0.296,0.384 0.456,0.576 -0.257,-0.737 -0.488,-1.488 -0.696,-2.256 -0.209,-0.768 -0.296,-1.536 -0.264,-2.304 0.032,-0.64 0.208,-1.248 0.528,-1.824 0.319,-0.576 0.848,-0.864 1.584,-0.864 0.448,-0.032 0.848,0.048 1.2,0.24 0.352,0.192 0.703,0.415 1.056,0.672 0.48,0.351 0.936,0.744 1.368,1.176 0.432,0.432 0.856,0.871 1.272,1.32 l 1.584,1.68 c 0.128,0.16 0.256,0.319 0.384,0.48 0.128,0.16 0.271,0.319 0.432,0.48 0.096,0.128 0.176,0.264 0.24,0.408 0.064,0.144 0.032,0.295 -0.096,0.456 -0.128,0.16 -0.264,0.223 -0.408,0.192 -0.144,-0.032 -0.288,-0.104 -0.432,-0.216 -0.144,-0.113 -0.272,-0.249 -0.384,-0.408 -0.112,-0.16 -0.216,-0.288 -0.312,-0.384 l -1.488,-1.632 c -0.16,-0.192 -0.48,-0.545 -0.96,-1.056 -0.48,-0.512 -1,-0.992 -1.56,-1.44 -0.56,-0.449 -1.097,-0.744 -1.608,-0.888 -0.512,-0.144 -0.88,0.055 -1.104,0.6 -0.16,0.351 -0.24,0.712 -0.24,1.08 0,0.367 0.032,0.728 0.096,1.08 0.096,0.607 0.24,1.232 0.432,1.872 0.192,0.672 0.432,1.407 0.72,2.208 l 0.432,1.152 0.192,0.576 c 0.096,0.192 0.208,0.352 0.336,0.48 0.832,1.056 1.648,2.112 2.448,3.168 0.8,1.056 1.6,2.128 2.4,3.216 0.64,0.864 1.272,1.728 1.896,2.592 0.624,0.864 1.208,1.76 1.752,2.688 0.224,0.352 0.44,0.72 0.648,1.104 0.208,0.384 0.392,0.783 0.552,1.2 0.192,0.48 0.272,1.048 0.24,1.704 C 2.488,-0.617 2.2,-0.161 1.656,0.096 1.112,0.384 0.56,0.352 0,0 z m -0.264,-5.4 c -0.512,-0.785 -1.04,-1.56 -1.584,-2.328 -0.704,-0.992 -1.424,-1.977 -2.16,-2.952 -0.737,-0.977 -1.472,-1.961 -2.208,-2.952 l 1.44,3.6 c 0.288,0.703 0.592,1.399 0.912,2.088 0.32,0.688 0.656,1.383 1.008,2.088 0.224,0.48 0.456,0.952 0.696,1.416 0.24,0.463 0.504,0.919 0.792,1.368 0.256,0.415 0.544,0.84 0.864,1.272 0.319,0.432 0.704,0.744 1.152,0.936 0.096,0.031 0.208,0.048 0.336,0.048 0.128,0 0.224,-0.048 0.288,-0.144 C 1.496,-1.217 1.56,-1.553 1.464,-1.968 1.368,-2.384 1.255,-2.72 1.128,-2.976 0.712,-3.809 0.248,-4.616 -0.264,-5.4 z"
           id="path222"
           style="fill:#ffffff;fill-opacity:1;stroke:none" />
      </g>
      <g
         transform="translate(218.8086,233.0596)"
         id="g224"
         style="fill:#ffffff;fill-opacity:1;stroke:none">
        <path
           d="m 0,0 c -0.24,-0.288 -0.44,-0.513 -0.6,-0.672 -0.576,-0.704 -1.184,-1.409 -1.824,-2.112 -0.352,-0.353 -0.696,-0.704 -1.032,-1.056 -0.336,-0.353 -0.696,-0.704 -1.08,-1.056 -0.384,-0.32 -0.768,-0.593 -1.152,-0.816 -0.096,-0.065 -0.216,-0.128 -0.36,-0.192 -0.144,-0.065 -0.281,-0.08 -0.408,-0.048 -0.096,0 -0.152,0.079 -0.168,0.24 -0.016,0.159 -0.024,0.271 -0.024,0.336 -0.032,0.352 0,0.735 0.096,1.152 0.128,0.48 0.272,0.952 0.432,1.416 0.16,0.463 0.336,0.919 0.528,1.368 0.448,1.087 0.92,2.143 1.416,3.168 0.496,1.023 1.016,2.047 1.56,3.072 0.064,0.096 0.12,0.192 0.168,0.288 0.048,0.096 0.088,0.192 0.12,0.288 0.064,0.16 0.056,0.304 -0.024,0.432 -0.08,0.127 -0.2,0.223 -0.36,0.288 C -2.936,6.127 -3.128,6.031 -3.288,5.808 L -4.344,4.56 -7.608,0.816 -8.328,-0.048 c -0.256,-0.353 -0.248,-0.633 0.024,-0.84 0.272,-0.209 0.535,-0.168 0.792,0.12 l 2.16,2.544 c -0.353,-0.737 -0.68,-1.457 -0.984,-2.16 -0.304,-0.704 -0.584,-1.425 -0.84,-2.16 -0.16,-0.48 -0.304,-0.977 -0.432,-1.488 -0.128,-0.512 -0.161,-1.04 -0.096,-1.584 0.032,-0.257 0.096,-0.504 0.192,-0.744 0.096,-0.24 0.272,-0.425 0.528,-0.552 0.319,-0.161 0.664,-0.176 1.032,-0.048 0.368,0.127 0.696,0.271 0.984,0.432 0.416,0.256 0.8,0.535 1.152,0.84 0.352,0.304 0.704,0.631 1.056,0.984 0.448,0.448 0.88,0.912 1.296,1.392 0.416,0.48 0.832,0.96 1.248,1.44 l 0.864,0.96 c 0.096,0.16 0.184,0.328 0.264,0.504 0.08,0.175 0.024,0.343 -0.168,0.504 C 0.488,0.319 0.24,0.288 0,0 z m 0.336,12.528 c 0.24,0.127 0.424,0.312 0.552,0.552 0.128,0.24 0.175,0.496 0.144,0.768 C 1,14.119 0.856,14.335 0.6,14.496 c -0.256,0.127 -0.504,0.127 -0.744,0 -0.24,-0.128 -0.424,-0.312 -0.552,-0.552 -0.128,-0.24 -0.176,-0.504 -0.144,-0.792 0.031,-0.288 0.175,-0.497 0.432,-0.624 0.256,-0.129 0.504,-0.129 0.744,0 z"
           id="path226"
           style="fill:#ffffff;fill-opacity:1;stroke:none" />
      </g>
      <g
         transform="translate(247.3926,233.3711)"
         id="g228"
         style="fill:#ffffff;fill-opacity:1;stroke:none">
        <path
           d="M 0,0 C -0.161,-0.144 -0.305,-0.296 -0.432,-0.456 L -1.44,-1.704 c -0.416,-0.48 -0.832,-0.944 -1.248,-1.392 -0.416,-0.448 -0.848,-0.896 -1.296,-1.344 -0.352,-0.32 -0.728,-0.64 -1.128,-0.96 -0.401,-0.32 -0.824,-0.528 -1.272,-0.624 -0.192,-0.032 -0.368,-0.032 -0.528,0 -0.16,0.032 -0.256,0.16 -0.288,0.384 -0.065,0.256 -0.056,0.504 0.024,0.744 0.079,0.24 0.152,0.472 0.216,0.696 0.224,0.704 0.48,1.384 0.768,2.04 0.288,0.656 0.576,1.32 0.864,1.992 0.256,0.64 0.528,1.32 0.816,2.04 0.288,0.72 0.432,1.448 0.432,2.184 C -4.08,4.312 -4.121,4.56 -4.2,4.8 -4.28,5.04 -4.416,5.256 -4.608,5.448 -4.832,5.64 -5.096,5.76 -5.4,5.808 -5.705,5.856 -6,5.864 -6.288,5.832 c -0.641,-0.064 -1.24,-0.264 -1.8,-0.6 -0.56,-0.336 -1.08,-0.712 -1.56,-1.128 -0.736,-0.608 -1.416,-1.272 -2.04,-1.992 -0.624,-0.72 -1.208,-1.448 -1.752,-2.184 0.16,0.672 0.288,1.36 0.384,2.064 0.096,0.704 0.079,1.408 -0.048,2.112 -0.096,0.544 -0.329,1 -0.696,1.368 -0.368,0.368 -0.84,0.536 -1.416,0.504 -0.545,-0.064 -1.04,-0.24 -1.488,-0.528 C -17.152,5.16 -17.568,4.84 -17.952,4.488 -18.497,4.04 -18.984,3.544 -19.416,3 c -0.432,-0.544 -0.856,-1.104 -1.272,-1.68 0.096,0.288 0.184,0.616 0.264,0.984 0.079,0.368 0.12,0.728 0.12,1.08 0,0.352 -0.048,0.688 -0.144,1.008 -0.096,0.32 -0.272,0.608 -0.528,0.864 -0.416,0.384 -0.857,0.512 -1.32,0.384 -0.464,-0.128 -0.888,-0.336 -1.272,-0.624 -0.576,-0.352 -1.088,-0.776 -1.536,-1.272 -0.449,-0.496 -0.896,-1 -1.344,-1.512 l -1.632,-1.92 -0.432,-0.48 c -0.16,-0.16 -0.209,-0.353 -0.144,-0.576 0.064,-0.224 0.223,-0.352 0.48,-0.384 0.16,0 0.28,0.04 0.36,0.12 0.08,0.08 0.151,0.168 0.216,0.264 l 0.624,0.72 1.68,1.92 c 0.256,0.256 0.496,0.512 0.72,0.768 0.223,0.256 0.464,0.512 0.72,0.768 0.224,0.192 0.448,0.376 0.672,0.552 0.224,0.176 0.463,0.328 0.72,0.456 0.128,0.064 0.256,0.112 0.384,0.144 0.127,0.032 0.256,-0.016 0.384,-0.144 0.288,-0.288 0.391,-0.672 0.312,-1.152 -0.08,-0.48 -0.168,-0.896 -0.264,-1.248 -0.128,-0.544 -0.288,-1.072 -0.48,-1.584 -0.192,-0.512 -0.4,-1.024 -0.624,-1.536 -0.288,-0.672 -0.593,-1.337 -0.912,-1.992 -0.32,-0.656 -0.641,-1.32 -0.96,-1.992 l -0.624,-1.296 c -0.128,-0.256 -0.128,-0.48 0,-0.672 0.288,-0.288 0.576,-0.288 0.864,0 0.128,0.16 0.232,0.336 0.312,0.528 0.079,0.192 0.152,0.368 0.216,0.528 l 0.672,1.248 1.584,2.736 c 0.576,0.928 1.176,1.84 1.8,2.736 0.624,0.896 1.32,1.728 2.088,2.496 0.256,0.288 0.544,0.56 0.864,0.816 0.32,0.256 0.656,0.464 1.008,0.624 0.319,0.128 0.592,0.192 0.816,0.192 0.352,0 0.584,-0.152 0.696,-0.456 0.112,-0.304 0.184,-0.6 0.216,-0.888 0.064,-0.704 0.024,-1.416 -0.12,-2.136 -0.144,-0.72 -0.312,-1.416 -0.504,-2.088 -0.096,-0.384 -0.2,-0.76 -0.312,-1.128 -0.113,-0.368 -0.232,-0.728 -0.36,-1.08 -0.065,-0.192 -0.152,-0.376 -0.264,-0.552 -0.113,-0.176 -0.216,-0.344 -0.312,-0.504 l -0.528,-1.008 c -0.257,-0.449 -0.448,-0.896 -0.576,-1.344 -0.064,-0.16 -0.096,-0.312 -0.096,-0.456 0,-0.144 0.064,-0.28 0.192,-0.408 0.256,-0.256 0.528,-0.256 0.816,0 0.16,0.128 0.288,0.288 0.384,0.48 0.096,0.192 0.192,0.368 0.288,0.528 0.16,0.32 0.304,0.64 0.432,0.96 0.128,0.32 0.256,0.656 0.384,1.008 0.064,0.192 0.127,0.376 0.192,0.552 0.064,0.176 0.144,0.344 0.24,0.504 l 0.528,0.816 c 0.192,0.288 0.384,0.576 0.576,0.864 0.192,0.288 0.4,0.56 0.624,0.816 0.416,0.544 0.84,1.08 1.272,1.608 0.432,0.528 0.888,1.032 1.368,1.512 0.415,0.384 0.84,0.752 1.272,1.104 0.432,0.352 0.92,0.656 1.464,0.912 0.128,0.064 0.304,0.128 0.528,0.192 0.224,0.064 0.439,0.096 0.648,0.096 0.208,0 0.392,-0.04 0.552,-0.12 0.16,-0.08 0.256,-0.248 0.288,-0.504 C -5.104,3.896 -5.12,3.648 -5.184,3.408 -5.249,3.168 -5.312,2.936 -5.376,2.712 -5.472,2.36 -5.584,2.032 -5.712,1.728 -5.84,1.424 -5.968,1.112 -6.096,0.792 -6.384,0.088 -6.688,-0.616 -7.008,-1.32 c -0.32,-0.704 -0.608,-1.424 -0.864,-2.16 -0.161,-0.448 -0.304,-0.984 -0.432,-1.608 -0.128,-0.624 0,-1.144 0.384,-1.56 0.192,-0.224 0.408,-0.368 0.648,-0.432 0.24,-0.064 0.496,-0.08 0.768,-0.048 0.272,0.032 0.544,0.096 0.816,0.192 0.271,0.096 0.504,0.208 0.696,0.336 0.672,0.384 1.288,0.856 1.848,1.416 0.56,0.56 1.096,1.128 1.608,1.704 0.32,0.352 0.624,0.712 0.912,1.08 0.288,0.368 0.576,0.728 0.864,1.08 0.16,0.16 0.32,0.36 0.48,0.6 0.16,0.24 0.112,0.472 -0.144,0.696 C 0.352,0.136 0.16,0.144 0,0 z"
           id="path230"
           style="fill:#ffffff;fill-opacity:1;stroke:none" />
      </g>
      <g
         transform="translate(261.2163,233.2754)"
         id="g232"
         style="fill:#ffffff;fill-opacity:1;stroke:none">
        <path
           d="m 0,0 c -0.161,-0.08 -0.288,-0.2 -0.384,-0.36 l -1.008,-1.056 c -0.48,-0.512 -1.025,-0.977 -1.632,-1.392 -0.448,-0.288 -0.92,-0.48 -1.416,-0.576 -0.497,-0.096 -1,-0.048 -1.512,0.144 0.48,0.608 0.92,1.264 1.32,1.968 0.4,0.704 0.728,1.423 0.984,2.16 0.256,0.672 0.4,1.416 0.432,2.232 0.031,0.816 -0.128,1.544 -0.48,2.184 C -3.984,5.848 -4.408,6.16 -4.968,6.24 -5.528,6.319 -6.064,6.184 -6.576,5.832 -7.056,5.479 -7.44,5.032 -7.728,4.488 -8.016,3.943 -8.24,3.4 -8.4,2.856 -8.561,2.344 -8.688,1.8 -8.784,1.224 -8.88,0.648 -8.912,0.072 -8.88,-0.504 c 0.031,-0.576 0.144,-1.128 0.336,-1.656 0.192,-0.528 0.496,-0.984 0.912,-1.368 -0.48,-0.545 -1.048,-1.049 -1.704,-1.512 -0.656,-0.464 -1.352,-0.744 -2.088,-0.84 -0.704,-0.096 -1.232,0.096 -1.584,0.576 -0.352,0.48 -0.544,1.039 -0.576,1.68 -0.032,0.544 0.016,1.063 0.144,1.56 0.127,0.496 0.288,0.984 0.48,1.464 0.224,0.607 0.496,1.176 0.816,1.704 0.32,0.528 0.672,1.048 1.056,1.56 0.416,0.511 0.896,0.991 1.44,1.44 0.224,0.224 0.48,0.432 0.768,0.624 0.128,0.096 0.256,0.192 0.384,0.288 0.127,0.096 0.208,0.24 0.24,0.432 0,0.32 -0.176,0.511 -0.528,0.576 -0.16,0 -0.312,-0.065 -0.456,-0.192 C -9.384,5.704 -9.521,5.608 -9.648,5.544 -10.192,5.095 -10.704,4.632 -11.184,4.152 -12.017,3.288 -12.728,2.32 -13.32,1.248 c -0.593,-1.073 -1,-2.201 -1.224,-3.384 -0.096,-0.545 -0.128,-1.113 -0.096,-1.704 0.032,-0.593 0.176,-1.144 0.432,-1.656 0.352,-0.641 0.84,-1.072 1.464,-1.296 0.624,-0.224 1.272,-0.256 1.944,-0.096 0.736,0.159 1.408,0.456 2.016,0.888 0.608,0.432 1.168,0.919 1.68,1.464 l 0.432,0.432 c 0.096,-0.064 0.24,-0.128 0.432,-0.192 0.16,-0.064 0.304,-0.104 0.432,-0.12 0.128,-0.017 0.271,-0.041 0.432,-0.072 0.288,-0.065 0.576,-0.072 0.864,-0.024 0.288,0.048 0.559,0.103 0.816,0.168 0.448,0.16 0.88,0.376 1.296,0.648 0.416,0.271 0.799,0.568 1.152,0.888 l 1.296,1.296 c 0.16,0.159 0.336,0.367 0.528,0.624 0.192,0.256 0.16,0.512 -0.096,0.768 C 0.32,0.04 0.16,0.08 0,0 z m -7.752,-0.936 c -0.08,0.704 -0.072,1.375 0.024,2.016 0.096,0.64 0.264,1.288 0.504,1.944 0.24,0.655 0.583,1.224 1.032,1.704 0.16,0.16 0.352,0.295 0.576,0.408 0.223,0.112 0.448,0.12 0.672,0.024 C -4.688,5 -4.528,4.783 -4.464,4.512 -4.4,4.24 -4.352,3.976 -4.32,3.72 -4.256,2.887 -4.352,2.095 -4.608,1.344 -4.864,0.592 -5.2,-0.12 -5.616,-0.792 -5.968,-1.4 -6.4,-2.04 -6.912,-2.712 c -0.48,0.48 -0.76,1.072 -0.84,1.776 z"
           id="path234"
           style="fill:#ffffff;fill-opacity:1;stroke:none" />
      </g>
      <g
         transform="translate(265.9199,246.8354)"
         id="g236"
         style="fill:#ffffff;fill-opacity:1;stroke:none">
        <path
           d="m 0,0 c 0.032,-0.192 0.104,-0.417 0.216,-0.672 0.112,-0.257 0.376,-0.416 0.792,-0.48 0.384,-0.065 0.703,0.064 0.96,0.384 0.256,0.319 0.304,0.672 0.144,1.056 C 2.047,0.48 1.952,0.607 1.824,0.672 l -0.24,0.192 c -0.032,0.032 -0.032,0.079 0,0.144 0.096,0.223 0.2,0.424 0.312,0.6 0.112,0.175 0.2,0.343 0.264,0.504 0.128,0.192 0.248,0.384 0.36,0.576 0.112,0.192 0.248,0.367 0.408,0.528 l 0.816,1.2 C 3.904,4.768 3.824,5.056 3.504,5.28 3.151,5.472 2.848,5.392 2.592,5.04 2.432,4.815 2.272,4.6 2.112,4.392 1.952,4.184 1.792,3.967 1.632,3.744 1.28,3.199 0.936,2.632 0.6,2.04 0.264,1.447 0.064,0.832 0,0.192 L 0,0 z m -4.656,-0.096 c 0.031,-0.192 0.112,-0.401 0.24,-0.624 0.127,-0.224 0.384,-0.368 0.768,-0.432 0.384,-0.065 0.704,0.064 0.96,0.384 0.256,0.319 0.304,0.672 0.144,1.056 -0.064,0.192 -0.161,0.319 -0.288,0.384 l -0.24,0.192 c -0.032,0.032 -0.032,0.079 0,0.144 0.096,0.223 0.199,0.424 0.312,0.6 0.112,0.175 0.199,0.343 0.264,0.504 0.127,0.192 0.247,0.384 0.36,0.576 0.112,0.192 0.247,0.367 0.408,0.528 l 0.816,1.2 c 0.16,0.352 0.079,0.64 -0.24,0.864 C -1.504,5.472 -1.808,5.392 -2.064,5.04 -2.225,4.815 -2.384,4.6 -2.544,4.392 -2.705,4.184 -2.864,3.967 -3.024,3.744 -3.376,3.199 -3.72,2.632 -4.056,2.04 -4.392,1.447 -4.592,0.832 -4.656,0.192 l 0,-0.288 z"
           id="path238"
           style="fill:#ffffff;fill-opacity:1;stroke:none" />
      </g>
    </g>
    <g
       transform="matrix(1.25,0,0,-1.25,-162.93504,1118.9918)"
       clip-path="url(#clipPath248)"
       id="g246"
       style="fill:#ffffff;fill-opacity:1;stroke:none">
      <g
         transform="translate(187.8286,196.0752)"
         id="g252"
         style="fill:#ffffff;fill-opacity:1;stroke:none">
        <path
           d="m 0,0 c 0,-0.348 0.372,-0.468 0.696,-0.468 0.312,0 0.516,0.084 0.732,0.252 -0.18,3.9 -0.144,11.484 -0.12,16.776 0,0.36 -0.228,0.636 -0.612,0.636 -0.336,0 -0.612,-0.084 -0.792,-0.192 0.072,-1.704 0.132,-3.996 0.168,-6.444 -0.372,0.984 -0.888,1.74 -1.764,1.74 -1.644,0 -2.424,-1.836 -2.424,-6.588 0,-4.692 1.32,-6.072 2.352,-6.072 0.768,0 1.428,0.648 1.836,1.668 C 0.036,0.792 0,0.288 0,0 z M 0.036,3.264 C -0.012,1.8 -0.768,1.032 -1.32,1.032 c -0.756,0 -1.548,1.344 -1.548,5.052 0,3.252 0.42,4.92 1.344,4.92 0.624,0 1.224,-0.804 1.608,-1.728 0.012,-2.028 0,-4.104 -0.048,-6.012 z"
           id="path254"
           style="fill:#ffffff;fill-opacity:1;stroke:none" />
      </g>
      <g
         transform="translate(193.9487,195.6553)"
         id="g256"
         style="fill:#ffffff;fill-opacity:1;stroke:none">
        <path
           d="m 0,0 c 1.392,0 2.796,1.74 2.784,6.804 0,3.696 -1.068,5.844 -2.736,5.892 -1.944,0.048 -3.012,-2.04 -3,-6.252 C -2.94,2.04 -1.716,0 0,0 z M -0.048,11.388 C 0.984,11.4 1.536,9.636 1.548,6.804 1.572,3.18 0.864,1.212 -0.024,1.236 c -1.092,0.036 -1.668,1.872 -1.68,5.208 0,3.264 0.576,4.932 1.656,4.944 z"
           id="path258"
           style="fill:#ffffff;fill-opacity:1;stroke:none" />
      </g>
      <g
         transform="translate(202,209.9712)"
         id="g260"
         style="fill:#ffffff;fill-opacity:1;stroke:none">
        <path
           d="M 0,0 C 0.3,0 0.48,0.072 0.636,0.24 0.588,0.78 0.648,1.524 0.66,2.064 0.684,2.484 0.336,2.676 0.06,2.676 -0.252,2.676 -0.42,2.604 -0.612,2.496 -0.516,1.86 -0.576,1.032 -0.576,0.468 -0.576,0.156 -0.336,0 0,0 z m -2.124,-18.72 c 1.728,0 2.964,0.948 2.94,3.372 -0.048,4.596 -0.096,8.784 -0.096,13.272 0,0.312 -0.312,0.468 -0.6,0.468 -0.216,0 -0.528,-0.048 -0.672,-0.168 0.024,-4.476 0.168,-8.844 0.156,-13.392 0,-1.776 -0.864,-2.328 -2.388,-2.28 -0.096,-0.24 -0.132,-0.408 -0.132,-0.648 0,-0.324 0.276,-0.624 0.792,-0.624 z"
           id="path262"
           style="fill:#ffffff;fill-opacity:1;stroke:none" />
      </g>
      <g
         transform="translate(205.6836,195.6553)"
         id="g264"
         style="fill:#ffffff;fill-opacity:1;stroke:none">
        <path
           d="m 0,0 c 0.336,0 0.456,0.06 0.576,0.144 -0.036,3.66 -0.048,8.58 0.06,12.072 0.012,0.336 -0.312,0.528 -0.624,0.528 -0.324,0 -0.48,-0.072 -0.612,-0.156 C -0.696,9.396 -0.54,4.476 -0.684,0.612 -0.708,0.168 -0.276,0 0,0 z m 0.084,14.4 c 0.252,0 0.48,0.084 0.66,0.192 -0.012,0.6 0.012,1.272 0.012,1.872 0,0.336 -0.336,0.516 -0.624,0.516 -0.264,0 -0.492,-0.072 -0.636,-0.18 0.036,-0.672 0.036,-1.212 0.024,-1.812 C -0.504,14.616 -0.276,14.4 0.084,14.4 z"
           id="path266"
           style="fill:#ffffff;fill-opacity:1;stroke:none" />
      </g>
      <g
         transform="translate(209.9434,207.7271)"
         id="g268"
         style="fill:#ffffff;fill-opacity:1;stroke:none">
        <path
           d="m 0,0 c 0.036,0.396 -0.204,0.696 -0.636,0.696 -0.396,0 -0.612,-0.156 -0.732,-0.264 0.204,-3.84 0.24,-8.088 0.264,-11.928 0,-0.276 0.156,-0.6 0.648,-0.6 0.324,0 0.54,0.12 0.672,0.276 -0.072,2.004 -0.144,4.608 -0.132,6.732 0.024,2.04 1.056,4.152 1.992,4.152 0.72,0 1.068,-0.9 1.08,-2.34 0.024,-3.084 -0.072,-5.148 -0.072,-8.196 0,-0.444 0.336,-0.624 0.648,-0.624 0.396,0 0.576,0.144 0.696,0.288 -0.132,2.724 -0.012,6.42 -0.024,9.42 C 4.392,-0.66 3.744,0.624 2.616,0.624 1.512,0.624 0.444,-0.708 0,-2.532 -0.012,-1.656 -0.024,-0.72 0,0 z"
           id="path270"
           style="fill:#ffffff;fill-opacity:1;stroke:none" />
      </g>
      <g
         transform="translate(221.1748,201.2231)"
         id="g272"
         style="fill:#ffffff;fill-opacity:1;stroke:none">
        <path
           d="m 0,0 c 0.096,0.24 0.156,0.78 0.156,1.128 0,4.008 -0.828,6.036 -2.46,6.036 -1.68,0 -2.784,-2.232 -2.784,-6.168 0,-3.852 0.732,-6.552 3.036,-6.552 1.056,0 1.584,0.444 1.944,0.828 0.252,0.3 0.348,0.564 0.348,0.888 0,0.372 -0.228,0.552 -0.504,0.552 -0.192,0 -0.348,-0.048 -0.444,-0.132 -0.12,-0.492 -0.564,-1.008 -1.236,-1.008 -1.236,0 -1.836,1.476 -1.932,4.392 C -2.64,0.012 -1.164,-0.024 0,0 z m -2.34,5.88 c 0.804,0 1.332,-1.62 1.344,-4.776 -0.9,-0.048 -1.92,-0.048 -2.892,-0.072 0.024,3.504 0.684,4.848 1.548,4.848 z m -0.276,2.364 c 0.24,0 0.384,0.036 0.528,0.096 0.348,0.876 0.912,1.872 1.2,2.472 0.06,0.144 0.06,0.24 0.06,0.324 0,0.312 -0.252,0.54 -0.552,0.54 -0.228,0 -0.384,-0.036 -0.492,-0.096 -0.372,-0.888 -0.924,-1.812 -1.2,-2.46 -0.084,-0.18 -0.096,-0.264 -0.096,-0.396 0,-0.264 0.204,-0.48 0.552,-0.48 z"
           id="path274"
           style="fill:#ffffff;fill-opacity:1;stroke:none" />
      </g>
      <g
         transform="translate(224.7266,212.2148)"
         id="g276"
         style="fill:#ffffff;fill-opacity:1;stroke:none">
        <path
           d="m 0,0 c -0.012,0.672 -0.252,1.056 -0.696,1.056 -0.396,0 -0.588,-0.144 -0.744,-0.288 0.168,-4.608 0.192,-10.776 0.132,-16.656 0,-0.372 0.156,-0.684 0.6,-0.684 0.372,0 0.516,0.096 0.672,0.192 -0.084,2.604 -0.096,5.64 -0.048,7.296 0.06,1.008 0.504,3.732 1.908,3.732 0.636,0 0.888,-0.792 0.924,-2.244 0.024,-1.944 -0.036,-5.172 0.048,-8.376 0.012,-0.408 0.216,-0.612 0.588,-0.612 0.312,0 0.588,0.072 0.684,0.144 -0.096,2.724 -0.156,6.348 -0.132,9.216 0.024,2.376 -0.564,3.432 -1.62,3.432 -1.344,0 -2.1,-1.272 -2.436,-2.7 C -0.132,-4.236 0.024,-2.232 0,0 z"
           id="path278"
           style="fill:#ffffff;fill-opacity:1;stroke:none" />
      </g>
      <g
         transform="translate(233.4502,195.6553)"
         id="g280"
         style="fill:#ffffff;fill-opacity:1;stroke:none">
        <path
           d="m 0,0 c 1.392,0 2.796,1.74 2.784,6.804 0,3.696 -1.068,5.844 -2.736,5.892 -1.944,0.048 -3.012,-2.04 -3,-6.252 C -2.94,2.04 -1.716,0 0,0 z M -0.048,11.388 C 0.984,11.4 1.536,9.636 1.548,6.804 1.572,3.18 0.864,1.212 -0.024,1.236 c -1.092,0.036 -1.668,1.872 -1.68,5.208 0,3.264 0.576,4.932 1.656,4.944 z"
           id="path282"
           style="fill:#ffffff;fill-opacity:1;stroke:none" />
      </g>
      <g
         transform="translate(242.7378,195.667)"
         id="g284"
         style="fill:#ffffff;fill-opacity:1;stroke:none">
        <path
           d="m 0,0 c 1.536,0 2.832,1.224 2.832,3.024 0,2.652 -3.66,4.092 -3.66,6.612 0,1.008 0.48,1.776 1.272,1.776 0.744,0 1.272,-0.504 1.488,-0.804 0.336,0 0.636,0.276 0.648,0.648 0.012,0.408 -0.156,0.648 -0.36,0.84 -0.444,0.408 -1.08,0.552 -1.668,0.552 -1.548,0 -2.58,-1.2 -2.58,-3.192 C -2.028,6.612 1.56,4.992 1.56,2.964 1.56,1.968 0.96,1.212 0,1.212 -0.864,1.212 -1.38,1.788 -1.692,2.04 -2.028,2.028 -2.268,1.74 -2.268,1.404 -2.268,1.116 -2.112,0.816 -1.932,0.66 -1.488,0.276 -0.876,0 0,0 z"
           id="path286"
           style="fill:#ffffff;fill-opacity:1;stroke:none" />
      </g>
      <g
         transform="translate(250.1055,195.6309)"
         id="g288"
         style="fill:#ffffff;fill-opacity:1;stroke:none">
        <path
           d="m 0,0 c 0.264,0 0.468,0.048 0.696,0.18 0.54,3.636 1.848,7.68 2.568,11.544 0.036,0.216 0.048,0.348 0.048,0.504 0,0.252 -0.24,0.54 -0.624,0.54 -0.252,0 -0.456,-0.048 -0.576,-0.096 C 1.788,10.428 0.636,5.496 0.036,2.508 -0.72,5.628 -1.368,8.82 -2.1,12.192 c -0.072,0.384 -0.408,0.54 -0.708,0.54 -0.252,0 -0.564,-0.06 -0.72,-0.18 C -2.616,8.508 -1.776,4.656 -0.696,0.54 -0.6,0.144 -0.276,0 0,0 z"
           id="path290"
           style="fill:#ffffff;fill-opacity:1;stroke:none" />
      </g>
      <g
         transform="translate(259.5132,201.2231)"
         id="g292"
         style="fill:#ffffff;fill-opacity:1;stroke:none">
        <path
           d="m 0,0 c 0.096,0.24 0.156,0.78 0.156,1.128 0,4.008 -0.828,6.036 -2.46,6.036 -1.68,0 -2.784,-2.232 -2.784,-6.168 0,-3.852 0.732,-6.552 3.036,-6.552 1.056,0 1.584,0.444 1.944,0.828 0.252,0.3 0.348,0.564 0.348,0.888 0,0.372 -0.228,0.552 -0.504,0.552 -0.192,0 -0.348,-0.048 -0.444,-0.132 -0.12,-0.492 -0.564,-1.008 -1.236,-1.008 -1.236,0 -1.836,1.476 -1.932,4.392 C -2.64,0.012 -1.164,-0.024 0,0 z m -2.34,5.88 c 0.804,0 1.332,-1.62 1.344,-4.776 -0.9,-0.048 -1.92,-0.048 -2.892,-0.072 0.024,3.504 0.684,4.848 1.548,4.848 z m 0.708,2.496 c 0.336,0.924 0.948,1.776 1.236,2.412 0.072,0.168 0.096,0.264 0.096,0.384 0,0.264 -0.204,0.48 -0.54,0.48 -0.228,0 -0.36,-0.048 -0.516,-0.108 -0.264,-0.66 -0.66,-1.452 -0.96,-2.052 -0.192,0.588 -0.456,1.344 -0.708,1.884 -0.108,0.192 -0.276,0.3 -0.504,0.3 -0.312,0 -0.564,-0.144 -0.696,-0.312 0.372,-0.816 0.804,-1.884 1.092,-2.724 0.084,-0.276 0.312,-0.396 0.768,-0.396 0.24,0 0.54,0.048 0.732,0.132 z"
           id="path294"
           style="fill:#ffffff;fill-opacity:1;stroke:none" />
      </g>
      <g
         transform="translate(265.8975,207.103)"
         id="g296"
         style="fill:#ffffff;fill-opacity:1;stroke:none">
        <path
           d="m 0,0 c 0.06,0.144 0.156,0.324 0.156,0.648 0,0.36 -0.18,0.612 -0.576,0.576 C -0.996,1.2 -1.632,1.188 -2.28,1.188 c 0.012,1.092 0,2.16 -0.048,3.168 -0.036,0.36 -0.18,0.54 -0.6,0.54 C -3.24,4.896 -3.444,4.824 -3.6,4.728 -3.564,3.612 -3.552,2.424 -3.552,1.2 -4.044,1.2 -4.512,1.212 -4.944,1.236 -5.04,1.212 -5.208,0.924 -5.208,0.588 -5.208,0.204 -5.004,0 -4.632,0 c 0.324,-0.012 0.696,-0.024 1.08,-0.012 -0.012,-2.628 -0.072,-5.376 -0.072,-7.956 0,-2.208 0.768,-3.492 2.352,-3.492 0.792,0 1.404,0.348 1.404,0.9 0,0.312 -0.108,0.588 -0.252,0.744 -0.324,-0.168 -0.72,-0.276 -1.104,-0.276 -0.744,0 -1.14,0.708 -1.176,2.16 -0.072,2.484 0.06,5.256 0.108,7.944 C -1.488,0.024 -0.684,0.036 0,0 z"
           id="path298"
           style="fill:#ffffff;fill-opacity:1;stroke:none" />
      </g>
      <g
         transform="translate(271.0581,196.231)"
         id="g300"
         style="fill:#ffffff;fill-opacity:1;stroke:none">
        <path
           d="m 0,0 c 0,-0.408 0.252,-0.588 0.624,-0.588 0.336,0 0.48,0.06 0.636,0.168 -0.06,1.044 -0.12,7.992 -0.072,9.432 0.048,2.064 -1.044,3.132 -2.82,3.132 -0.696,0 -1.416,-0.3 -1.776,-0.708 -0.276,-0.24 -0.528,-0.612 -0.528,-1.14 0,-0.588 0.408,-0.9 1.02,-0.708 0.168,0.924 0.588,1.356 1.32,1.356 1.056,0 1.536,-0.852 1.536,-2.232 0,-0.264 -0.012,-0.936 -0.012,-1.716 -2.748,-0.06 -4.056,-1.452 -4.056,-3.984 0,-2.58 0.888,-3.564 2.004,-3.564 0.96,0 1.764,0.9 2.172,2.076 C 0.024,0.816 0,0.108 0,0 z M -0.06,3.768 C -0.036,2.016 -0.852,0.684 -1.8,0.684 c -0.72,0 -1.188,0.864 -1.188,2.316 0,1.968 0.828,2.832 2.916,2.952 0,-0.732 0,-1.5 0.012,-2.184 z"
           id="path302"
           style="fill:#ffffff;fill-opacity:1;stroke:none" />
      </g>
    </g>
  </g>
</svg>
