<?xml version="1.0" encoding="UTF-8" standalone="no"?>
<!-- Created with Inkscape (http://www.inkscape.org/) -->

<svg
   xmlns:dc="http://purl.org/dc/elements/1.1/"
   xmlns:cc="http://creativecommons.org/ns#"
   xmlns:rdf="http://www.w3.org/1999/02/22-rdf-syntax-ns#"
   xmlns:svg="http://www.w3.org/2000/svg"
   xmlns="http://www.w3.org/2000/svg"
   version="1.1"
   width="15.97636"
   height="10.760498"
   id="svg2">
  <defs
     id="defs3721" />
  <metadata
     id="metadata3724">
    <rdf:RDF>
      <cc:Work
         rdf:about="">
        <dc:format>image/svg+xml</dc:format>
        <dc:type
           rdf:resource="http://purl.org/dc/dcmitype/StillImage" />
        <dc:title></dc:title>
      </cc:Work>
    </rdf:RDF>
  </metadata>
  <g
     transform="translate(-403.44039,-501.26765)"
     id="layer1">
    <g
       transform="matrix(0.3,0,0,-0.3,403.07589,511.02815)"
       id="g668">
      <g
         transform="scale(1,-1)"
         id="text670">
        <path
           d="m 21.291504,-25.466309 -13.0517579,0 0,8.986817 5.6249999,0 c 0.498033,1.6e-5 0.930161,0.183122 1.296387,0.549316 0.366195,0.366227 0.549301,0.798355 0.549316,1.296387 -1.5e-5,0.527358 -0.179459,0.974135 -0.53833,1.340332 -0.358901,0.366224 -0.794692,0.549329 -1.307373,0.549316 l -5.6249999,0 0,9.0527347 13.0957029,0 c 0.498025,3.7e-6 0.930154,0.1794469 1.296387,0.5383301 0.366188,0.3588895 0.549293,0.7946801 0.549316,1.3073731 -2.3e-5,0.5126966 -0.18679,0.9484872 -0.560302,1.30737302 C 22.247292,-0.17944318 21.804177,0 21.291504,0 l -16.7431642,0 0,-29.20166 16.7431642,0 c 0.512673,2.9e-5 0.955788,0.186796 1.329346,0.560303 0.373512,0.373563 0.560279,0.816678 0.560302,1.329345 -2.3e-5,0.498074 -0.18679,0.930202 -0.560302,1.296387 -0.373558,0.366237 -0.816673,0.549342 -1.329346,0.549316 z"
           id="path3716"
           style="font-size:45px;font-variant:normal;font-weight:normal;writing-mode:lr-tb;fill:#ffffff;fill-opacity:1;fill-rule:nonzero;stroke:none;font-family:OCR A Extended;-inkscape-font-specification:OCRAExtended" />
        <path
           d="m 51.136208,-27.312012 0,27.312012 -4.965821,0 -9.93164,-22.675781 0,20.8300779 c -9e-6,0.5126966 -0.179452,0.9484872 -0.53833,1.30737302 C 35.341523,-0.17944318 34.905732,0 34.393044,0 33.880342,0 33.444552,-0.17944318 33.08567,-0.53833008 32.726779,-0.8972159 32.547336,-1.3330065 32.54734,-1.8457031 l 0,-27.3559569 4.899903,0 9.953613,22.6318358 0,-20.7421878 c -1.9e-5,-0.512667 0.186748,-0.955782 0.560303,-1.329345 0.373515,-0.373507 0.816629,-0.560274 1.329345,-0.560303 0.512674,2.9e-5 0.948465,0.183134 1.307374,0.549316 0.358863,0.366239 0.538306,0.813016 0.53833,1.340332 z"
           id="path3718"
           style="font-size:45px;font-variant:normal;font-weight:normal;writing-mode:lr-tb;fill:#ffffff;fill-opacity:1;fill-rule:nonzero;stroke:none;font-family:OCR A Extended;-inkscape-font-specification:OCRAExtended" />
      </g>
    </g>
  </g>
</svg>
