<?xml version="1.0" encoding="UTF-8" standalone="no"?>
<!-- Created with Inkscape (http://www.inkscape.org/) -->

<svg
   xmlns:dc="http://purl.org/dc/elements/1.1/"
   xmlns:cc="http://creativecommons.org/ns#"
   xmlns:rdf="http://www.w3.org/1999/02/22-rdf-syntax-ns#"
   xmlns:svg="http://www.w3.org/2000/svg"
   xmlns="http://www.w3.org/2000/svg"
   version="1.1"
   width="15.652987"
   height="10.7605"
   id="svg2">
  <defs
     id="defs3721" />
  <metadata
     id="metadata3724">
    <rdf:RDF>
      <cc:Work
         rdf:about="">
        <dc:format>image/svg+xml</dc:format>
        <dc:type
           rdf:resource="http://purl.org/dc/dcmitype/StillImage" />
        <dc:title></dc:title>
      </cc:Work>
    </rdf:RDF>
  </metadata>
  <g
     transform="translate(-403.4947,-500.96387)"
     id="layer1">
    <g
       transform="matrix(1.25,0,0,1.25,258.41662,1432.5494)"
       id="text676"
       style="font-size:2.88000011px">
      <path
         d="m 119.27242,-738.34596 1.59785,0 c 0.12304,0 0.22939,0.0431 0.31904,0.1292 0.0896,0.0861 0.13447,0.19072 0.13448,0.31377 -1e-5,0.12305 -0.0448,0.22764 -0.13448,0.31377 -0.0897,0.0861 -0.196,0.1292 -0.31904,0.1292 l -1.65586,0 c -0.21094,0 -0.42891,-0.0668 -0.6539,-0.20039 -0.22501,-0.1336 -0.38145,-0.28301 -0.46934,-0.44824 l -1.02305,-1.97754 c -0.13711,-0.28477 -0.20566,-0.57656 -0.20566,-0.87539 0,-0.33047 0.065,-0.61699 0.19512,-0.85957 l 1.03359,-1.95645 c 0.0984,-0.18281 0.25136,-0.34365 0.45879,-0.48252 0.20742,-0.13886 0.40781,-0.20829 0.60117,-0.2083 l 1.75078,0 c 0.12304,1e-5 0.22763,0.0439 0.31377,0.13184 0.0861,0.0879 0.1292,0.1916 0.1292,0.31113 0,0.12305 -0.0431,0.2294 -0.1292,0.31904 -0.0861,0.0897 -0.19073,0.13448 -0.31377,0.13447 l -1.6875,0 c -0.14063,1e-5 -0.25488,0.0826 -0.34277,0.24786 l -0.98086,1.83515 c -0.0774,0.14415 -0.11602,0.31465 -0.11602,0.51153 0,0.20742 0.0422,0.39023 0.12657,0.54843 l 0.93867,1.80352 c 0.0879,0.18633 0.23203,0.27949 0.43242,0.27949 z"
         id="path3711"
         style="font-size:10.80000019px;font-variant:normal;font-weight:normal;writing-mode:lr-tb;fill:#ffffff;fill-opacity:1;fill-rule:nonzero;stroke:none;font-family:OCR A Extended;-inkscape-font-specification:OCRAExtended" />
      <path
         d="m 123.74539,-744.46842 4.03946,0 0,0.56953 -3.25371,5.55293 2.81074,0 c 0.12304,0 0.22763,0.0431 0.31377,0.1292 0.0861,0.0861 0.12919,0.19072 0.1292,0.31377 -1e-5,0.11953 -0.044,0.22324 -0.13184,0.31113 -0.0879,0.0879 -0.1916,0.13184 -0.31113,0.13184 l -4.02891,0 0,-0.58535 3.24844,-5.52657 -2.81602,0 c -0.11953,1e-5 -0.22148,-0.0448 -0.30585,-0.13447 -0.0844,-0.0896 -0.12657,-0.19599 -0.12657,-0.31904 0,-0.11953 0.0422,-0.22324 0.12657,-0.31113 0.0844,-0.0879 0.18632,-0.13183 0.30585,-0.13184 z"
         id="path3713"
         style="font-size:10.80000019px;font-variant:normal;font-weight:normal;writing-mode:lr-tb;fill:#ffffff;fill-opacity:1;fill-rule:nonzero;stroke:none;font-family:OCR A Extended;-inkscape-font-specification:OCRAExtended" />
    </g>
  </g>
</svg>
