<?xml version="1.0" encoding="UTF-8" standalone="no"?>
<!-- Created with Inkscape (http://www.inkscape.org/) -->

<svg
   xmlns:dc="http://purl.org/dc/elements/1.1/"
   xmlns:cc="http://creativecommons.org/ns#"
   xmlns:rdf="http://www.w3.org/1999/02/22-rdf-syntax-ns#"
   xmlns:svg="http://www.w3.org/2000/svg"
   xmlns="http://www.w3.org/2000/svg"
   version="1.1"
   width="476"
   height="1052"
   viewBox="0 0 476 1052"
   enable-background="new 0 0 476 1052"
   id="svg2">
  <defs
     id="defs5814" />
  <metadata
     id="metadata5817">
    <rdf:RDF>
      <cc:Work
         rdf:about="">
        <dc:format>image/svg+xml</dc:format>
        <dc:type
           rdf:resource="http://purl.org/dc/dcmitype/StillImage" />
        <dc:title></dc:title>
      </cc:Work>
    </rdf:RDF>
  </metadata>
  <g
     transform="translate(0,0.00128185)"
     id="layer1">
    <path
       d="m 25.516888,230.83197 c 0,-119.23845 96.858582,-215.825217 216.368862,-215.825217 119.51027,0 216.36886,96.586767 216.36886,215.825217 0,119.23845 -96.85859,215.82522 -216.36886,215.82522 -119.51028,0 -216.368862,-96.58677 -216.368862,-215.82522 z"
       id="path730"
       style="fill:#ffd243;fill-opacity:1;fill-rule:evenodd;stroke:none" />
    <path
       d="m 25.516888,230.83197 c 0,-119.23845 96.858582,-215.825217 216.368862,-215.825217 119.51027,0 216.36886,96.586767 216.36886,215.825217 0,119.23845 -96.85859,215.82522 -216.36886,215.82522 -119.51028,0 -216.368862,-96.58677 -216.368862,-215.82522 z"
       id="path732"
       style="fill:none;stroke:#f3ad21;stroke-width:8.69824505;stroke-linecap:butt;stroke-linejoin:miter;stroke-miterlimit:10;stroke-opacity:1;stroke-dasharray:none" />
    <path
       d="m 14.644096,236.26837 c 0,-119.23845 96.586764,-215.825217 215.825204,-215.825217 119.23845,0 215.82522,96.586767 215.82522,215.825217 0,119.23844 -96.58677,215.82522 -215.82522,215.82522 -119.23844,0 -215.825204,-96.58678 -215.825204,-215.82522 z"
       id="path734"
       style="fill:#ffd243;fill-opacity:1;fill-rule:evenodd;stroke:none" />
    <path
       d="m 154.90328,689.66444 c 0,-47.11551 38.23606,-85.35154 85.35154,-85.35154 47.11551,0 85.35154,38.23603 85.35154,85.35154 0,47.11551 -38.23603,85.35154 -85.35154,85.35154 -47.11548,0 -85.35154,-38.23603 -85.35154,-85.35154 z"
       id="path804"
       style="fill:#ffd243;fill-opacity:1;fill-rule:evenodd;stroke:none" />
    <path
       d="m 99.45197,136.23854 c 0,-14.13464 11.41645,-25.55108 25.55111,-25.55108 14.13464,0 25.55108,11.41644 25.55108,25.55108 0,14.13466 -11.41644,25.55111 -25.55108,25.55111 -14.13466,0 -25.55111,-11.41645 -25.55111,-25.55111 z"
       id="path816"
       style="fill:#f3ad21;fill-opacity:1;fill-rule:evenodd;stroke:none" />
    <path
       d="m 99.45197,136.23854 c 0,-14.13464 11.41645,-25.55108 25.55111,-25.55108 14.13464,0 25.55108,11.41644 25.55108,25.55108 0,14.13466 -11.41644,25.55111 -25.55108,25.55111 -14.13466,0 -25.55111,-11.41645 -25.55111,-25.55111 z"
       id="path818"
       style="fill:none;stroke:#f3ad21;stroke-width:8.69824505;stroke-linecap:butt;stroke-linejoin:miter;stroke-miterlimit:10;stroke-opacity:1;stroke-dasharray:none" />
    <path
       d="m 65.746273,200.93174 c 0,-9.60431 7.520357,-17.39648 16.852867,-17.39648 9.33248,0 16.85283,7.79217 16.85283,17.39648 0,9.60431 -7.52035,17.39649 -16.85283,17.39649 -9.33251,0 -16.852867,-7.79218 -16.852867,-17.39649 z"
       id="path820"
       style="fill:#f3ad21;fill-opacity:1;fill-rule:evenodd;stroke:none" />
    <path
       d="m 65.746273,200.93174 c 0,-9.60431 7.520357,-17.39648 16.852867,-17.39648 9.33248,0 16.85283,7.79217 16.85283,17.39648 0,9.60431 -7.52035,17.39649 -16.85283,17.39649 -9.33251,0 -16.852867,-7.79218 -16.852867,-17.39649 z"
       id="path822"
       style="fill:none;stroke:#f3ad21;stroke-width:8.69824505;stroke-linecap:butt;stroke-linejoin:miter;stroke-miterlimit:10;stroke-opacity:1;stroke-dasharray:none" />
    <path
       d="m 126.634,193.32077 c 0,-5.43639 4.34913,-9.78551 9.78552,-9.78551 5.4364,0 9.78552,4.34912 9.78552,9.78551 0,5.43642 -4.34912,9.78555 -9.78552,9.78555 -5.43639,0 -9.78552,-4.34913 -9.78552,-9.78555 z"
       id="path824"
       style="fill:#f3ad21;fill-opacity:1;fill-rule:evenodd;stroke:none" />
    <path
       d="m 126.634,193.32077 c 0,-5.43639 4.34913,-9.78551 9.78552,-9.78551 5.4364,0 9.78552,4.34912 9.78552,9.78551 0,5.43642 -4.34912,9.78555 -9.78552,9.78555 -5.43639,0 -9.78552,-4.34913 -9.78552,-9.78555 z"
       id="path826"
       style="fill:none;stroke:#f3ad21;stroke-width:8.69824505;stroke-linecap:butt;stroke-linejoin:miter;stroke-miterlimit:10;stroke-opacity:1;stroke-dasharray:none" />
    <path
       d="m 158.61816,668.51773 c -26.59604,-0.73906 -44.82786,4.45414 -43.02554,11.41926 6.57137,25.39538 238.24165,45.30245 246.31566,23.66817 1.78731,-4.78902 -9.6837,-13.83578 -36.9545,-16.49035"
       id="path828"
       style="fill:none;stroke:#f3ad21;stroke-width:8.69824505;stroke-linecap:butt;stroke-linejoin:miter;stroke-miterlimit:10;stroke-opacity:1;stroke-dasharray:none" />
    <path
       d="m 188.60898,971.27014 c 0,-29.0848 23.64836,-52.7331 52.73314,-52.7331 29.08476,0 52.73311,23.6483 52.73311,52.7331 0,29.08476 -23.64835,52.73316 -52.73311,52.73316 -29.08478,0 -52.73314,-23.6484 -52.73314,-52.73316 z"
       id="path830"
       style="fill:#0d0d0d;fill-opacity:1;fill-rule:evenodd;stroke:none" />
    <path
       d="m 188.60898,971.27014 c 0,-29.0848 23.64836,-52.7331 52.73314,-52.7331 29.08476,0 52.73311,23.6483 52.73311,52.7331 0,29.08476 -23.64835,52.73316 -52.73311,52.73316 -29.08478,0 -52.73314,-23.6484 -52.73314,-52.73316 z"
       id="path832"
       style="fill:none;stroke:#262626;stroke-width:8.69824505;stroke-linecap:butt;stroke-linejoin:miter;stroke-miterlimit:10;stroke-opacity:1;stroke-dasharray:none" />
  </g>
</svg>
