<?xml version="1.0" encoding="UTF-8" standalone="no"?>
<!-- Created with Inkscape (http://www.inkscape.org/) -->

<svg
   xmlns:dc="http://purl.org/dc/elements/1.1/"
   xmlns:cc="http://creativecommons.org/ns#"
   xmlns:rdf="http://www.w3.org/1999/02/22-rdf-syntax-ns#"
   xmlns:svg="http://www.w3.org/2000/svg"
   xmlns="http://www.w3.org/2000/svg"
   xmlns:xlink="http://www.w3.org/1999/xlink"
   version="1.1"
   width="280"
   height="300"
   viewBox="0 0 280 300"
   enable-background="new 0 0 280 300"
   id="svg2">
  <defs
     id="defs4786">
    <pattern
       patternTransform="matrix(0.375,0,0,0.375,150.23566,595.97237)"
       id="pattern3052"
       xlink:href="#pattern682" />
    <pattern
       patternTransform="matrix(0.375,0,0,0.375,150,595.92)"
       patternUnits="userSpaceOnUse"
       x="0"
       y="0"
       enable-background="new 0 0 16 16"
       viewBox="0 0 16 16"
       width="16"
       height="16"
       id="pattern682">
    </pattern>
  </defs>
  <metadata
     id="metadata4789">
    <rdf:RDF>
      <cc:Work
         rdf:about="">
        <dc:format>image/svg+xml</dc:format>
        <dc:type
           rdf:resource="http://purl.org/dc/dcmitype/StillImage" />
        <dc:title></dc:title>
      </cc:Work>
    </rdf:RDF>
  </metadata>
  <path
     d="M 61.744953,154.11946 94.300399,195.77524 116.66772,185.55171 106.4871,133.68313 61.744953,154.11946 z"
     id="path660"
     style="fill:#f3ad21;fill-opacity:1;fill-rule:evenodd;stroke:none" />
  <path
     d="M 92.476685,196.53691 61.534689,156.147 51.624411,227.84045 92.476685,196.53691 z"
     id="path662"
     style="fill:#ffd243;fill-opacity:1;fill-rule:evenodd;stroke:none" />
  <path
     d="M 92.476685,196.53691 61.534689,156.147 51.624411,227.84045 92.476685,196.53691 z"
     id="path664"
     style="fill:none;stroke:#ffd243;stroke-width:1.0727731;stroke-linecap:butt;stroke-linejoin:miter;stroke-miterlimit:10;stroke-opacity:1;stroke-dasharray:none" />
  <path
     d="m 218.25934,153.60453 -32.55867,41.65578 -22.36732,-10.22353 10.18062,-51.87931 44.74537,20.44706 z"
     id="path666"
     style="fill:#f3ad21;fill-opacity:1;fill-rule:evenodd;stroke:none" />
  <path
     d="m 187.52439,196.01125 30.93878,-40.38991 9.91242,71.69345 -40.85119,-31.30354 z"
     id="path668"
     style="fill:#ffd243;fill-opacity:1;fill-rule:evenodd;stroke:none" />
  <path
     d="m 187.52439,196.01125 30.93878,-40.38991 9.91242,71.69345 -40.85119,-31.30354 z"
     id="path670"
     style="fill:none;stroke:#ffd243;stroke-width:1.0727731;stroke-linecap:butt;stroke-linejoin:miter;stroke-miterlimit:10;stroke-opacity:1;stroke-dasharray:none" />
  <path
     d="M 104.26646,66.452439 140.18291,30.535994 176.09936,66.452439 140.18291,102.36888 104.26646,66.452439 z"
     id="path672"
     style="fill:#f3ad21;fill-opacity:1;fill-rule:evenodd;stroke:none" />
  <path
     d="m 175.58442,135.06701 -71.83289,0 0,-67.76708 35.91645,-16.939088 35.91644,16.939088 0,67.76708 z"
     id="path674"
     style="fill:#ffd243;fill-opacity:1;fill-rule:evenodd;stroke:none" />
  <path
     d="m 175.45569,133.77968 -17.92604,76.46729 -35.85208,0 -17.92604,-76.46729 71.70416,0 z"
     id="path676"
     style="fill:#ffd243;fill-opacity:1;fill-rule:evenodd;stroke:none" />
  <path
     d="M 140.04345,27.961339 139.28178,233.91231"
     id="path678"
     style="fill:none;stroke:#ffffff;stroke-width:1.02986217;stroke-linecap:butt;stroke-linejoin:miter;stroke-miterlimit:10;stroke-opacity:1;stroke-dasharray:none" />
  <path
     d="m 184.59572,145.10817 c 0,-1.06205 0.8904,-1.931 1.99536,-1.931 1.10495,0 1.99535,0.86895 1.99535,1.931 0,1.06204 -0.8904,1.93099 -1.99535,1.93099 -1.10496,0 -1.99536,-0.86895 -1.99536,-1.93099 z"
     id="path692"
     style="fill:#ffd243;fill-opacity:1;fill-rule:evenodd;stroke:none" />
  <path
     d="m 184.59572,145.10817 c 0,-1.06205 0.8904,-1.931 1.99536,-1.931 1.10495,0 1.99535,0.86895 1.99535,1.931 0,1.06204 -0.8904,1.93099 -1.99535,1.93099 -1.10496,0 -1.99536,-0.86895 -1.99536,-1.93099 z"
     id="path694"
     style="fill:none;stroke:#f3ad21;stroke-width:1.02986217;stroke-linecap:butt;stroke-linejoin:miter;stroke-miterlimit:10;stroke-opacity:1;stroke-dasharray:none" />
  <path
     d="m 190.77489,147.74719 c 0,-1.10496 0.8904,-1.99536 1.99536,-1.99536 1.10496,0 1.99536,0.8904 1.99536,1.99536 0,1.10495 -0.8904,1.99536 -1.99536,1.99536 -1.10496,0 -1.99536,-0.89041 -1.99536,-1.99536 z"
     id="path696"
     style="fill:#ffd243;fill-opacity:1;fill-rule:evenodd;stroke:none" />
  <path
     d="m 190.77489,147.74719 c 0,-1.10496 0.8904,-1.99536 1.99536,-1.99536 1.10496,0 1.99536,0.8904 1.99536,1.99536 0,1.10495 -0.8904,1.99536 -1.99536,1.99536 -1.10496,0 -1.99536,-0.89041 -1.99536,-1.99536 z"
     id="path698"
     style="fill:none;stroke:#f3ad21;stroke-width:1.02986217;stroke-linecap:butt;stroke-linejoin:miter;stroke-miterlimit:10;stroke-opacity:1;stroke-dasharray:none" />
  <path
     d="m 197.59773,150.32184 c 0,-1.10495 0.8904,-1.99536 1.99536,-1.99536 1.10495,0 1.99535,0.89041 1.99535,1.99536 0,1.10496 -0.8904,1.99536 -1.99535,1.99536 -1.10496,0 -1.99536,-0.8904 -1.99536,-1.99536 z"
     id="path700"
     style="fill:#ffd243;fill-opacity:1;fill-rule:evenodd;stroke:none" />
  <path
     d="m 197.59773,150.32184 c 0,-1.10495 0.8904,-1.99536 1.99536,-1.99536 1.10495,0 1.99535,0.89041 1.99535,1.99536 0,1.10496 -0.8904,1.99536 -1.99535,1.99536 -1.10496,0 -1.99536,-0.8904 -1.99536,-1.99536 z"
     id="path702"
     style="fill:none;stroke:#f3ad21;stroke-width:1.02986217;stroke-linecap:butt;stroke-linejoin:miter;stroke-miterlimit:10;stroke-opacity:1;stroke-dasharray:none" />
  <path
     d="m 73.263318,140.30214 4.312548,5.00985 7.294857,-3.67961 -1.448244,-6.43664 -10.159161,5.1064 z"
     id="path704"
     style="fill:#000000;fill-opacity:1;fill-rule:evenodd;stroke:none" />
  <path
     d="m 73.263318,140.30214 4.312548,5.00985 7.294857,-3.67961 -1.448244,-6.43664 -10.159161,5.1064 z"
     id="path706"
     style="fill:none;stroke:#262626;stroke-width:1.0727731;stroke-linecap:butt;stroke-linejoin:miter;stroke-miterlimit:10;stroke-opacity:1;stroke-dasharray:none" />
  <path
     d="m 144.43109,77.523458 0,105.003032"
     id="path708"
     style="fill:none;stroke:#ffffff;stroke-width:1.02986217;stroke-linecap:butt;stroke-linejoin:miter;stroke-miterlimit:10;stroke-opacity:1;stroke-dasharray:none" />
  <path
     d="m 128.40386,224.47194 0,33.59922"
     id="path710"
     style="fill:none;stroke:#262626;stroke-width:1.67352605;stroke-linecap:butt;stroke-linejoin:miter;stroke-miterlimit:10;stroke-opacity:1;stroke-dasharray:none" />
  <path
     d="m 136.12783,238.11758 0,33.59925"
     id="path712"
     style="fill:none;stroke:#262626;stroke-width:1.67352605;stroke-linecap:butt;stroke-linejoin:miter;stroke-miterlimit:10;stroke-opacity:1;stroke-dasharray:none" />
  <path
     d="m 142.95067,225.5018 0,45.7001"
     id="path714"
     style="fill:none;stroke:#262626;stroke-width:1.67352605;stroke-linecap:butt;stroke-linejoin:miter;stroke-miterlimit:10;stroke-opacity:1;stroke-dasharray:none" />
  <path
     d="m 87.917399,147.29662 c 0,-1.06204 0.890402,-1.93099 1.995358,-1.93099 1.104956,0 1.995358,0.86895 1.995358,1.93099 0,1.06205 -0.890402,1.93099 -1.995358,1.93099 -1.104956,0 -1.995358,-0.86894 -1.995358,-1.93099 z"
     id="path716"
     style="fill:#ffd243;fill-opacity:1;fill-rule:evenodd;stroke:none" />
  <path
     d="m 87.917399,147.29662 c 0,-1.06204 0.890402,-1.93099 1.995358,-1.93099 1.104956,0 1.995358,0.86895 1.995358,1.93099 0,1.06205 -0.890402,1.93099 -1.995358,1.93099 -1.104956,0 -1.995358,-0.86894 -1.995358,-1.93099 z"
     id="path718"
     style="fill:none;stroke:#f3ad21;stroke-width:1.02986217;stroke-linecap:butt;stroke-linejoin:miter;stroke-miterlimit:10;stroke-opacity:1;stroke-dasharray:none" />
  <path
     d="m 81.48076,149.54945 c 0,-1.10496 0.890402,-1.99536 1.995358,-1.99536 1.104956,0 1.995358,0.8904 1.995358,1.99536 0,1.10495 -0.890402,1.99535 -1.995358,1.99535 -1.104956,0 -1.995358,-0.8904 -1.995358,-1.99535 z"
     id="path720"
     style="fill:#ffd243;fill-opacity:1;fill-rule:evenodd;stroke:none" />
  <path
     d="m 81.48076,149.54945 c 0,-1.10496 0.890402,-1.99536 1.995358,-1.99536 1.104956,0 1.995358,0.8904 1.995358,1.99536 0,1.10495 -0.890402,1.99535 -1.995358,1.99535 -1.104956,0 -1.995358,-0.8904 -1.995358,-1.99535 z"
     id="path722"
     style="fill:none;stroke:#f3ad21;stroke-width:1.02986217;stroke-linecap:butt;stroke-linejoin:miter;stroke-miterlimit:10;stroke-opacity:1;stroke-dasharray:none" />
  <path
     d="m 74.786656,152.44593 c 0,-1.06204 0.868946,-1.93099 1.930991,-1.93099 1.062046,0 1.930992,0.86895 1.930992,1.93099 0,1.06205 -0.868946,1.931 -1.930992,1.931 -1.062045,0 -1.930991,-0.86895 -1.930991,-1.931 z"
     id="path724"
     style="fill:#ffd243;fill-opacity:1;fill-rule:evenodd;stroke:none" />
  <path
     d="m 74.786656,152.44593 c 0,-1.06204 0.868946,-1.93099 1.930991,-1.93099 1.062046,0 1.930992,0.86895 1.930992,1.93099 0,1.06205 -0.868946,1.931 -1.930992,1.931 -1.062045,0 -1.930991,-0.86895 -1.930991,-1.931 z"
     id="path726"
     style="fill:none;stroke:#f3ad21;stroke-width:1.02986217;stroke-linecap:butt;stroke-linejoin:miter;stroke-miterlimit:10;stroke-opacity:1;stroke-dasharray:none" />
  <path
     d="m 204.30256,139.13282 -4.31255,5.00985 -7.28413,-3.67961 1.44825,-6.43664 10.14843,5.1064 z"
     id="path728"
     style="fill:#000000;fill-opacity:1;fill-rule:evenodd;stroke:none" />
  <path
     d="m 204.30256,139.13282 -4.31255,5.00985 -7.28413,-3.67961 1.44825,-6.43664 10.14843,5.1064 z"
     id="path730"
     style="fill:none;stroke:#262626;stroke-width:1.0727731;stroke-linecap:butt;stroke-linejoin:miter;stroke-miterlimit:10;stroke-opacity:1;stroke-dasharray:none" />
  <g
     transform="translate(0.53083,0)"
     id="g3897">
    <path
       d="m 125.96917,212.46319 0,4.85948"
       id="path3826"
       style="fill:none;stroke:#ffd243;stroke-width:1.70000005;stroke-linecap:butt;stroke-linejoin:miter;stroke-miterlimit:4;stroke-opacity:1;stroke-dasharray:none" />
    <path
       d="m 128.96917,212.46319 0,4.85948"
       id="path3826-1"
       style="fill:none;stroke:#ffd243;stroke-width:1.70000005;stroke-linecap:butt;stroke-linejoin:miter;stroke-miterlimit:4;stroke-opacity:1;stroke-dasharray:none" />
    <path
       d="m 131.96917,212.46319 0,4.85948"
       id="path3826-7"
       style="fill:none;stroke:#ffd243;stroke-width:1.70000005;stroke-linecap:butt;stroke-linejoin:miter;stroke-miterlimit:4;stroke-opacity:1;stroke-dasharray:none" />
    <path
       d="m 134.96917,212.46319 0,4.85948"
       id="path3826-4"
       style="fill:none;stroke:#ffd243;stroke-width:1.70000005;stroke-linecap:butt;stroke-linejoin:miter;stroke-miterlimit:4;stroke-opacity:1;stroke-dasharray:none" />
    <path
       d="m 137.96917,212.46319 0,4.85948"
       id="path3826-0"
       style="fill:none;stroke:#ffd243;stroke-width:1.70000005;stroke-linecap:butt;stroke-linejoin:miter;stroke-miterlimit:4;stroke-opacity:1;stroke-dasharray:none" />
    <path
       d="m 140.96917,212.46319 0,4.85948"
       id="path3826-9"
       style="fill:none;stroke:#ffd243;stroke-width:1.70000005;stroke-linecap:butt;stroke-linejoin:miter;stroke-miterlimit:4;stroke-opacity:1;stroke-dasharray:none" />
    <path
       d="m 143.96917,212.46319 0,4.85948"
       id="path3826-1-4"
       style="fill:none;stroke:#ffd243;stroke-width:1.70000005;stroke-linecap:butt;stroke-linejoin:miter;stroke-miterlimit:4;stroke-opacity:1;stroke-dasharray:none" />
    <path
       d="m 146.96917,212.46319 0,4.85948"
       id="path3826-7-8"
       style="fill:none;stroke:#ffd243;stroke-width:1.70000005;stroke-linecap:butt;stroke-linejoin:miter;stroke-miterlimit:4;stroke-opacity:1;stroke-dasharray:none" />
    <path
       d="m 149.96917,212.46319 0,4.85948"
       id="path3826-4-8"
       style="fill:none;stroke:#ffd243;stroke-width:1.70000005;stroke-linecap:butt;stroke-linejoin:miter;stroke-miterlimit:4;stroke-opacity:1;stroke-dasharray:none" />
    <path
       d="m 152.96917,212.46319 0,4.85948"
       id="path3826-0-2"
       style="fill:none;stroke:#ffd243;stroke-width:1.70000005;stroke-linecap:butt;stroke-linejoin:miter;stroke-miterlimit:4;stroke-opacity:1;stroke-dasharray:none" />
  </g>
</svg>
