<?xml version="1.0" encoding="UTF-8" standalone="no"?>
<!-- Created with Inkscape (http://www.inkscape.org/) -->

<svg
   xmlns:dc="http://purl.org/dc/elements/1.1/"
   xmlns:cc="http://creativecommons.org/ns#"
   xmlns:rdf="http://www.w3.org/1999/02/22-rdf-syntax-ns#"
   xmlns:svg="http://www.w3.org/2000/svg"
   xmlns="http://www.w3.org/2000/svg"
   version="1.1"
   width="300"
   height="230"
   viewBox="0 0 300 230"
   enable-background="new 0 0 300 230"
   id="svg2">
  <defs
     id="defs3994">
    <clipPath
       id="clipPath268">
      <path
         d="m 217.73,755.28 155.55,0 0,24 -155.55,0 0,-24 z"
         id="path270" />
    </clipPath>
    <clipPath
       id="clipPath268-1">
      <path
         d="m 217.73,755.28 155.55,0 0,24 -155.55,0 0,-24 z"
         id="path270-7" />
    </clipPath>
  </defs>
  <metadata
     id="metadata3997">
    <rdf:RDF>
      <cc:Work
         rdf:about="">
        <dc:format>image/svg+xml</dc:format>
        <dc:type
           rdf:resource="http://purl.org/dc/dcmitype/StillImage" />
        <dc:title></dc:title>
      </cc:Work>
    </rdf:RDF>
  </metadata>
  <g
     transform="translate(0,-822.36218)"
     id="layer1">
    <path
       d="M 95.3783,916.29389 17.926846,945.30193 102.6303,1005.716 19.145183,1044.3934"
       id="path210"
       style="fill:none;stroke:#ffffff;stroke-width:1.8565141;stroke-linecap:butt;stroke-linejoin:miter;stroke-miterlimit:10;stroke-opacity:1;stroke-dasharray:none" />
    <path
       d="m 190.98877,917.45421 -77.45145,29.00804 84.70346,60.41405 -83.48512,38.6773"
       id="path212"
       style="fill:none;stroke:#ffffff;stroke-width:1.8565141;stroke-linecap:butt;stroke-linejoin:miter;stroke-miterlimit:10;stroke-opacity:1;stroke-dasharray:none" />
    <path
       d="m 227.59691,978.54513 55.85013,-42.60313 -55.67609,-23.39981 1.29569,134.50051"
       id="path214"
       style="fill:none;stroke:#ffffff;stroke-width:1.93386889;stroke-linecap:butt;stroke-linejoin:miter;stroke-miterlimit:10;stroke-opacity:1;stroke-dasharray:none" />
    <path
       d="m 94.04393,915.59769 c 0,-2.3013 1.91452,-4.17714 4.29318,-4.17714 2.37866,0 4.29319,1.87584 4.29319,4.17714 0,2.30131 -1.91453,4.17716 -4.29319,4.17716 -2.37866,0 -4.29318,-1.87585 -4.29318,-4.17716 z"
       id="path216"
       style="fill:#ffffff;fill-opacity:1;fill-rule:evenodd;stroke:none" />
    <path
       d="m 94.04393,915.59769 c 0,-2.3013 1.91452,-4.17714 4.29318,-4.17714 2.37866,0 4.29319,1.87584 4.29319,4.17714 0,2.30131 -1.91453,4.17716 -4.29319,4.17716 -2.37866,0 -4.29318,-1.87585 -4.29318,-4.17716 z"
       id="path218"
       style="fill:none;stroke:#ffffff;stroke-width:1.8565141;stroke-linecap:butt;stroke-linejoin:miter;stroke-miterlimit:10;stroke-opacity:1;stroke-dasharray:none" />
    <path
       d="m 16.766525,944.60573 c 0,-2.3013 1.875853,-4.17715 4.177157,-4.17715 2.301304,0 4.177157,1.87585 4.177157,4.17715 0,2.30131 -1.875853,4.17716 -4.177157,4.17716 -2.301304,0 -4.177157,-1.87585 -4.177157,-4.17716 z"
       id="path220"
       style="fill:#ffffff;fill-opacity:1;fill-rule:evenodd;stroke:none" />
    <path
       d="m 16.766525,944.60573 c 0,-2.3013 1.875853,-4.17715 4.177157,-4.17715 2.301304,0 4.177157,1.87585 4.177157,4.17715 0,2.30131 -1.875853,4.17716 -4.177157,4.17716 -2.301304,0 -4.177157,-1.87585 -4.177157,-4.17716 z"
       id="path222"
       style="fill:none;stroke:#ffffff;stroke-width:1.8565141;stroke-linecap:butt;stroke-linejoin:miter;stroke-miterlimit:10;stroke-opacity:1;stroke-dasharray:none" />
    <path
       d="m 98.91727,1006.3348 c 0,-2.3013 1.87585,-4.1772 4.17716,-4.1772 2.3013,0 4.17715,1.8759 4.17715,4.1772 0,2.3013 -1.87585,4.1772 -4.17715,4.1772 -2.30131,0 -4.17716,-1.8759 -4.17716,-4.1772 z"
       id="path224"
       style="fill:#ffffff;fill-opacity:1;fill-rule:evenodd;stroke:none" />
    <path
       d="m 98.91727,1006.3348 c 0,-2.3013 1.87585,-4.1772 4.17716,-4.1772 2.3013,0 4.17715,1.8759 4.17715,4.1772 0,2.3013 -1.87585,4.1772 -4.17715,4.1772 -2.30131,0 -4.17716,-1.8759 -4.17716,-4.1772 z"
       id="path226"
       style="fill:none;stroke:#ffffff;stroke-width:1.8565141;stroke-linecap:butt;stroke-linejoin:miter;stroke-miterlimit:10;stroke-opacity:1;stroke-dasharray:none" />
    <path
       d="m 16.766525,1045.0896 c 0,-2.3014 1.875853,-4.1772 4.177157,-4.1772 2.301304,0 4.177157,1.8758 4.177157,4.1772 0,2.3012 -1.875853,4.1771 -4.177157,4.1771 -2.301304,0 -4.177157,-1.8759 -4.177157,-4.1771 z"
       id="path228"
       style="fill:#ffffff;fill-opacity:1;fill-rule:evenodd;stroke:none" />
    <path
       d="m 16.766525,1045.0896 c 0,-2.3014 1.875853,-4.1772 4.177157,-4.1772 2.301304,0 4.177157,1.8758 4.177157,4.1772 0,2.3012 -1.875853,4.1771 -4.177157,4.1771 -2.301304,0 -4.177157,-1.8759 -4.177157,-4.1771 z"
       id="path230"
       style="fill:none;stroke:#ffffff;stroke-width:1.8565141;stroke-linecap:butt;stroke-linejoin:miter;stroke-miterlimit:10;stroke-opacity:1;stroke-dasharray:none" />
    <path
       d="m 189.6544,916.75802 c 0,-2.30131 1.91452,-4.17716 4.29318,-4.17716 2.37867,0 4.2932,1.87585 4.2932,4.17716 0,2.3013 -1.91453,4.17715 -4.2932,4.17715 -2.37866,0 -4.29318,-1.87585 -4.29318,-4.17715 z"
       id="path232"
       style="fill:#ffffff;fill-opacity:1;fill-rule:evenodd;stroke:none" />
    <path
       d="m 189.6544,916.75802 c 0,-2.30131 1.91452,-4.17716 4.29318,-4.17716 2.37867,0 4.2932,1.87585 4.2932,4.17716 0,2.3013 -1.91453,4.17715 -4.2932,4.17715 -2.37866,0 -4.29318,-1.87585 -4.29318,-4.17715 z"
       id="path234"
       style="fill:none;stroke:#ffffff;stroke-width:1.8565141;stroke-linecap:butt;stroke-linejoin:miter;stroke-miterlimit:10;stroke-opacity:1;stroke-dasharray:none" />
    <path
       d="m 112.377,945.76605 c 0,-2.3013 1.87585,-4.17715 4.17716,-4.17715 2.3013,0 4.17715,1.87585 4.17715,4.17715 0,2.30131 -1.87585,4.17716 -4.17715,4.17716 -2.30131,0 -4.17716,-1.87585 -4.17716,-4.17716 z"
       id="path236"
       style="fill:#ffffff;fill-opacity:1;fill-rule:evenodd;stroke:none" />
    <path
       d="m 112.377,945.76605 c 0,-2.3013 1.87585,-4.17715 4.17716,-4.17715 2.3013,0 4.17715,1.87585 4.17715,4.17715 0,2.30131 -1.87585,4.17716 -4.17715,4.17716 -2.30131,0 -4.17716,-1.87585 -4.17716,-4.17716 z"
       id="path238"
       style="fill:none;stroke:#ffffff;stroke-width:1.8565141;stroke-linecap:butt;stroke-linejoin:miter;stroke-miterlimit:10;stroke-opacity:1;stroke-dasharray:none" />
    <path
       d="m 195.68807,1007.4951 c 0,-2.3013 1.91452,-4.1771 4.29319,-4.1771 2.37866,0 4.29318,1.8758 4.29318,4.1771 0,2.3013 -1.91452,4.1772 -4.29318,4.1772 -2.37867,0 -4.29319,-1.8759 -4.29319,-4.1772 z"
       id="path240"
       style="fill:#ffffff;fill-opacity:1;fill-rule:evenodd;stroke:none" />
    <path
       d="m 195.68807,1007.4951 c 0,-2.3013 1.91452,-4.1771 4.29319,-4.1771 2.37866,0 4.29318,1.8758 4.29318,4.1771 0,2.3013 -1.91452,4.1772 -4.29318,4.1772 -2.37867,0 -4.29319,-1.8759 -4.29319,-4.1772 z"
       id="path242"
       style="fill:none;stroke:#ffffff;stroke-width:1.8565141;stroke-linecap:butt;stroke-linejoin:miter;stroke-miterlimit:10;stroke-opacity:1;stroke-dasharray:none" />
    <path
       d="m 112.377,1046.2499 c 0,-2.3013 1.87585,-4.1772 4.17716,-4.1772 2.3013,0 4.17715,1.8759 4.17715,4.1772 0,2.3013 -1.87585,4.1771 -4.17715,4.1771 -2.30131,0 -4.17716,-1.8758 -4.17716,-4.1771 z"
       id="path244"
       style="fill:#ffffff;fill-opacity:1;fill-rule:evenodd;stroke:none" />
    <path
       d="m 112.377,1046.2499 c 0,-2.3013 1.87585,-4.1772 4.17716,-4.1772 2.3013,0 4.17715,1.8759 4.17715,4.1772 0,2.3013 -1.87585,4.1771 -4.17715,4.1771 -2.30131,0 -4.17716,-1.8758 -4.17716,-4.1771 z"
       id="path246"
       style="fill:none;stroke:#ffffff;stroke-width:1.8565141;stroke-linecap:butt;stroke-linejoin:miter;stroke-miterlimit:10;stroke-opacity:1;stroke-dasharray:none" />
    <path
       d="m 226.08849,914.43737 c 0,-2.3013 1.87585,-4.17714 4.17715,-4.17714 2.30131,0 4.17716,1.87584 4.17716,4.17714 0,2.30132 -1.87585,4.17716 -4.17716,4.17716 -2.3013,0 -4.17715,-1.87584 -4.17715,-4.17716 z"
       id="path248"
       style="fill:#ffffff;fill-opacity:1;fill-rule:evenodd;stroke:none" />
    <path
       d="m 226.08849,914.43737 c 0,-2.3013 1.87585,-4.17714 4.17715,-4.17714 2.30131,0 4.17716,1.87584 4.17716,4.17714 0,2.30132 -1.87585,4.17716 -4.17716,4.17716 -2.3013,0 -4.17715,-1.87584 -4.17715,-4.17716 z"
       id="path250"
       style="fill:none;stroke:#ffffff;stroke-width:1.8565141;stroke-linecap:butt;stroke-linejoin:miter;stroke-miterlimit:10;stroke-opacity:1;stroke-dasharray:none" />
    <path
       d="m 278.07088,937.41174 c 0,-2.3013 1.87586,-4.17716 4.17716,-4.17716 2.3013,0 4.17716,1.87586 4.17716,4.17716 0,2.3013 -1.87586,4.17716 -4.17716,4.17716 -2.3013,0 -4.17716,-1.87586 -4.17716,-4.17716 z"
       id="path252"
       style="fill:#ffffff;fill-opacity:1;fill-rule:evenodd;stroke:none" />
    <path
       d="m 278.07088,937.41174 c 0,-2.3013 1.87586,-4.17716 4.17716,-4.17716 2.3013,0 4.17716,1.87586 4.17716,4.17716 0,2.3013 -1.87586,4.17716 -4.17716,4.17716 -2.3013,0 -4.17716,-1.87586 -4.17716,-4.17716 z"
       id="path254"
       style="fill:none;stroke:#ffffff;stroke-width:1.8565141;stroke-linecap:butt;stroke-linejoin:miter;stroke-miterlimit:10;stroke-opacity:1;stroke-dasharray:none" />
    <path
       d="m 224.92816,976.16647 c 0,-2.3013 1.87586,-4.17716 4.17716,-4.17716 2.30131,0 4.17716,1.87586 4.17716,4.17716 0,2.3013 -1.87585,4.17716 -4.17716,4.17716 -2.3013,0 -4.17716,-1.87586 -4.17716,-4.17716 z"
       id="path256"
       style="fill:#ffffff;fill-opacity:1;fill-rule:evenodd;stroke:none" />
    <path
       d="m 224.92816,976.16647 c 0,-2.3013 1.87586,-4.17716 4.17716,-4.17716 2.30131,0 4.17716,1.87586 4.17716,4.17716 0,2.3013 -1.87585,4.17716 -4.17716,4.17716 -2.3013,0 -4.17716,-1.87586 -4.17716,-4.17716 z"
       id="path258"
       style="fill:none;stroke:#ffffff;stroke-width:1.8565141;stroke-linecap:butt;stroke-linejoin:miter;stroke-miterlimit:10;stroke-opacity:1;stroke-dasharray:none" />
    <path
       d="m 226.08849,1045.0896 c 0,-2.3014 1.87585,-4.1772 4.17715,-4.1772 2.30131,0 4.17716,1.8758 4.17716,4.1772 0,2.3012 -1.87585,4.1771 -4.17716,4.1771 -2.3013,0 -4.17715,-1.8759 -4.17715,-4.1771 z"
       id="path260"
       style="fill:#ffffff;fill-opacity:1;fill-rule:evenodd;stroke:none" />
    <path
       d="m 226.08849,1045.0896 c 0,-2.3014 1.87585,-4.1772 4.17715,-4.1772 2.30131,0 4.17716,1.8758 4.17716,4.1772 0,2.3012 -1.87585,4.1771 -4.17716,4.1771 -2.3013,0 -4.17715,-1.8759 -4.17715,-4.1771 z"
       id="path262"
       style="fill:none;stroke:#ffffff;stroke-width:1.8565141;stroke-linecap:butt;stroke-linejoin:miter;stroke-miterlimit:10;stroke-opacity:1;stroke-dasharray:none" />
    <g
       transform="matrix(1.9338689,0,0,-1.9338689,-415.56922,2344.6493)"
       id="g264">
      <g
         clip-path="url(#clipPath268-1)"
         id="g266">
        <g
           transform="matrix(1,0,0,-1,224.93,767.52)"
           id="text272">
          <path
             d="m 1.419082,-0.57585937 0,-8.53505853 4.0858594,0 c 0.4707362,9.1e-6 0.876351,0.1713956 1.2168457,0.5141601 0.3404812,0.3427817 0.5107252,0.7518243 0.5107324,1.2271289 l 0,2.1594727 c -7.2e-6,0.4753172 -0.1691086,0.8820746 -0.5073047,1.2202734 -0.3382095,0.3382068 -0.7449669,0.5073082 -1.2202734,0.5073047 l -2.9204297,0 0,2.90671873 c -2.6e-6,0.15996135 -0.055989,0.29592801 -0.167959,0.40790039 C 2.3045778,-0.05598627 2.1686111,0 2.0086523,0 1.8441192,0 1.7047249,-0.05598627 1.5904687,-0.16795898 1.4762095,-0.27993136 1.4190806,-0.41589802 1.419082,-0.57585937 z m 1.1654297,-4.05843753 2.9204297,0 c 0.155385,4.7e-6 0.290209,-0.055982 0.4044726,-0.1679589 0.1142518,-0.1119678 0.1713807,-0.2479344 0.1713868,-0.4079004 l 0,-2.1594727 C 6.0807947,-7.5295823 6.0236658,-7.665549 5.909414,-7.7775293 5.7951504,-7.889494 5.6603264,-7.9454803 5.5049414,-7.9454883 l -2.9204297,0 z"
             id="path4959"
             style="font-size:14.03999996px;font-variant:normal;font-weight:normal;writing-mode:lr-tb;fill:#ffffff;fill-opacity:1;fill-rule:nonzero;stroke:none;font-family:OCR A Extended;-inkscape-font-specification:OCR A Extended" />
          <path
             d="m 31.123663,-8.2676953 1.268262,2.5845117 c 0.178235,0.3519194 0.267356,0.7335401 0.267363,1.1448633 -7e-6,0.4021916 -0.08913,0.7815272 -0.267363,1.1380078 l -1.268262,2.55708985 C 30.854009,-0.28107394 30.396978,0 29.752569,0 29.446354,0 29.170993,-0.07998039 28.926485,-0.23994141 28.68197,-0.39990194 28.498015,-0.60099549 28.37462,-0.84322265 L 27.099503,-3.4003125 C 26.9304,-3.7339416 26.845849,-4.1132771 26.84585,-4.5383203 c -10e-7,-0.4250341 0.08455,-0.8066548 0.253653,-1.1448633 l 1.275117,-2.5845117 c 0.287926,-0.5621396 0.747242,-0.8432135 1.377949,-0.8432226 0.639839,9.1e-6 1.09687,0.281083 1.371094,0.8432226 z m -1.755,0.5758594 L 28.175811,-5.265 c -0.10969,0.2422316 -0.164534,0.4798876 -0.164531,0.7129688 -3e-6,0.2513714 0.05484,0.4913126 0.164531,0.7198242 l 1.227129,2.4542578 c 0.06398,0.1508215 0.180523,0.2262316 0.349629,0.2262305 0.146246,1.1e-6 0.258218,-0.075409 0.335918,-0.2262305 l 1.233984,-2.4542578 c 0.114252,-0.2422225 0.171381,-0.4821637 0.171387,-0.7198242 -6e-6,-0.2513624 -0.05713,-0.4890184 -0.171387,-0.7129688 l -1.206562,-2.4268359 c -0.0777,-0.1782343 -0.198813,-0.2673553 -0.36334,-0.2673633 -0.164535,8e-6 -0.292504,0.089129 -0.383906,0.2673633 z"
             id="path4961"
             style="font-size:14.03999996px;font-variant:normal;font-weight:normal;writing-mode:lr-tb;fill:#ffffff;fill-opacity:1;fill-rule:nonzero;stroke:none;font-family:OCR A Extended;-inkscape-font-specification:OCR A Extended" />
          <path
             d="m 52.229512,-0.57585937 0,-8.53505853 4.072148,0 c 0.470736,9.1e-6 0.876351,0.1713956 1.216846,0.5141601 0.340481,0.3427817 0.510725,0.7518243 0.510732,1.2271289 l 0,0.658125 c -7e-6,0.4798891 -0.169109,0.8900742 -0.507305,1.2305566 -0.338209,0.3404935 -0.744966,0.5107374 -1.220273,0.5107325 l -0.733535,0 2.358281,4.04472652 c 0.07312,0.11882893 0.10968,0.23765694 0.109688,0.35648438 -8e-6,0.15539103 -0.05942,0.28907254 -0.178243,0.40104492 C 57.739016,-0.05598627 57.604192,0 57.453379,0 57.224857,0 57.051185,-0.10283193 56.932363,-0.30849609 l -2.70791,-4.66171871 -0.829512,0 0,4.39435543 c -2e-6,0.15996135 -0.05827,0.29592801 -0.174814,0.40790039 C 53.103582,-0.05598627 52.96533,0 52.805371,0 c -0.159963,0 -0.29593,-0.05598627 -0.4079,-0.16795898 -0.111975,-0.11197238 -0.167961,-0.24793904 -0.167959,-0.40790039 z m 1.151718,-5.54607423 2.92043,0 c 0.159955,6.1e-6 0.295922,-0.05598 0.4079,-0.167959 0.111967,-0.1119662 0.167953,-0.2479329 0.167959,-0.4079004 l 0,-0.6718359 c -6e-6,-0.1599534 -0.05599,-0.2959201 -0.167959,-0.4079004 -0.111978,-0.1119647 -0.247945,-0.167951 -0.4079,-0.167959 l -2.92043,0 z"
             id="path4963"
             style="font-size:14.03999996px;font-variant:normal;font-weight:normal;writing-mode:lr-tb;fill:#ffffff;fill-opacity:1;fill-rule:nonzero;stroke:none;font-family:OCR A Extended;-inkscape-font-specification:OCR A Extended" />
          <path
             d="m 77.558333,-7.5410156 0,-1.5561914 5.813437,0 0,1.5699023 c -7e-6,0.1599683 -0.05714,0.295935 -0.171386,0.4079004 -0.114265,0.1119797 -0.249089,0.167966 -0.404473,0.167959 -0.159967,7e-6 -0.298219,-0.057122 -0.414756,-0.1713867 -0.116549,-0.1142506 -0.17482,-0.2490747 -0.174814,-0.4044727 l 0,-0.4181836 -1.16543,0 0,7.36962893 c -5e-6,0.15996135 -0.05713,0.29592801 -0.171387,0.40790039 C 80.755262,-0.05598627 80.620438,0 80.465052,0 c -0.164536,0 -0.30393,-0.05598627 -0.418184,-0.16795898 -0.114262,-0.11197238 -0.17139,-0.24793904 -0.171387,-0.40790039 l 0,-7.36962893 -1.165429,0 0,0.4044727 c -3e-6,0.1599683 -0.05599,0.295935 -0.167959,0.4079004 -0.111975,0.1119797 -0.247942,0.1679659 -0.407901,0.167959 -0.159963,6.9e-6 -0.295929,-0.055979 -0.4079,-0.167959 -0.111974,-0.1119654 -0.167961,-0.2479321 -0.167959,-0.4079004 z"
             id="path4965"
             style="font-size:14.03999996px;font-variant:normal;font-weight:normal;writing-mode:lr-tb;fill:#ffffff;fill-opacity:1;fill-rule:nonzero;stroke:none;font-family:OCR A Extended;-inkscape-font-specification:OCR A Extended" />
          <path
             d="m 102.96256,-0.80208984 2.33086,-7.87693356 c 0.0914,-0.2879207 0.28336,-0.4318854 0.57586,-0.4318945 0.28335,9.1e-6 0.4616,0.1211222 0.53473,0.3633398 l 2.29658,8.00033201 c 0.0183,0.0594147 0.0274,0.1165436 0.0274,0.17138672 -1e-5,0.15996135 -0.0549,0.29592801 -0.16453,0.40790039 C 108.45378,-0.05598627 108.3281,0 108.18643,0 c -0.30165,0 -0.4936,-0.13939439 -0.57586,-0.41818359 l -0.46617,-1.56304691 -2.62565,0 -0.5073,1.67273441 c -0.0137,0.0731252 -0.0708,0.14282243 -0.17139,0.20909179 C 103.73951,-0.03313473 103.62982,0 103.511,0 c -0.16911,0 -0.3085,-0.05712885 -0.41819,-0.17138672 -0.10968,-0.11425752 -0.16453,-0.25365192 -0.16453,-0.41818359 0,-0.068554 0.0114,-0.1393938 0.0343,-0.21251953 z m 2.89301,-5.64205076 -0.98719,3.2974805 1.9401,0 z m 0.71982,-5.1073244 c 0.0823,-0.03655 0.16681,-0.05483 0.25365,-0.05484 0.16453,1.2e-5 0.29935,0.06057 0.40448,0.18167 0.10511,0.121125 0.15767,0.257092 0.15767,0.407901 0,0.246807 -0.1074,0.420479 -0.3222,0.521015 l -2.09092,0.9666215 c -0.0823,0.036572 -0.16682,0.054853 -0.25365,0.054844 -0.16454,9.5e-6 -0.29936,-0.060547 -0.40448,-0.1816699 -0.10512,-0.1211035 -0.15768,-0.2570702 -0.15767,-0.4079006 -1e-5,-0.246787 0.1074,-0.420458 0.3222,-0.521016 z"
             id="path4967"
             style="font-size:14.03999996px;font-variant:normal;font-weight:normal;writing-mode:lr-tb;fill:#ffffff;fill-opacity:1;fill-rule:nonzero;stroke:none;font-family:OCR A Extended;-inkscape-font-specification:OCR A Extended" />
          <path
             d="m 128.36876,0 0,-8.5350586 c 0,-0.1553819 0.0571,-0.290206 0.17139,-0.4044726 0.11425,-0.1142488 0.24908,-0.1713776 0.40447,-0.1713867 0.15539,9.1e-6 0.29021,0.057138 0.40447,0.1713867 0.11426,0.1142666 0.17138,0.2490907 0.17139,0.4044726 l 0,7.3833399 4.07215,0 c 0.15995,1.1e-6 0.2982,0.055987 0.41475,0.16795894 0.11654,0.11197352 0.17481,0.24794019 0.17482,0.40790039 -1e-5,0.15996135 -0.0583,0.29592801 -0.17482,0.40790039 C 133.89083,-0.05598627 133.75258,0 133.59263,0 z"
             id="path4969"
             style="font-size:14.03999996px;font-variant:normal;font-weight:normal;writing-mode:lr-tb;fill:#ffffff;fill-opacity:1;fill-rule:nonzero;stroke:none;font-family:OCR A Extended;-inkscape-font-specification:OCR A Extended" />
        </g>
      </g>
    </g>
    <path
       d="m 8.644274,878.46735 283.891956,0"
       id="path292"
       style="fill:none;stroke:#ffffff;stroke-width:1.8565141;stroke-linecap:butt;stroke-linejoin:miter;stroke-miterlimit:10;stroke-opacity:1;stroke-dasharray:none" />
  </g>
</svg>
